<svg xmlns="http://www.w3.org/2000/svg" xmlns:xlink="http://www.w3.org/1999/xlink" width="400" zoomAndPan="magnify" viewBox="0 0 300 187.499995" height="250" preserveAspectRatio="xMidYMid meet" version="1.0"><defs><g/><clipPath id="b5316e6c3c"><path d="M 117 39.90625 L 168 39.90625 L 168 92 L 117 92 Z M 117 39.90625 " clip-rule="nonzero"/></clipPath><clipPath id="442c79fabc"><path d="M 117.792969 39.90625 L 167.507812 39.90625 L 167.507812 91.664062 L 117.792969 91.664062 Z M 117.792969 39.90625 " clip-rule="nonzero"/></clipPath><clipPath id="eb84a867b2"><path d="M 132.359375 67.707031 C 131.714844 76.308594 137.707031 80.167969 139.921875 81.292969 C 140.164062 78.980469 140.046875 72.5 132.359375 67.707031 M 126.679688 83.6875 C 129.222656 85.378906 132.648438 86.378906 137.238281 86.183594 C 135.519531 84.789062 131.863281 82.617188 126.679688 83.6875 Z M 145.4375 60.507812 C 144.726562 59.796875 143.738281 59.355469 142.648438 59.355469 C 141.558594 59.355469 140.574219 59.796875 139.863281 60.507812 C 139.148438 61.222656 138.707031 62.207031 138.707031 63.296875 C 138.707031 64.386719 139.148438 65.371094 139.863281 66.085938 C 140.574219 66.796875 141.5625 67.238281 142.648438 67.238281 C 143.738281 67.238281 144.726562 66.796875 145.4375 66.085938 C 146.152344 65.371094 146.59375 64.386719 146.59375 63.296875 C 146.59375 62.207031 146.148438 61.222656 145.4375 60.507812 Z M 142.648438 57.953125 C 144.125 57.953125 145.460938 58.550781 146.429688 59.519531 C 147.394531 60.484375 147.992188 61.824219 147.992188 63.296875 C 147.992188 64.773438 147.394531 66.109375 146.429688 67.074219 C 145.460938 68.042969 144.125 68.640625 142.648438 68.640625 C 141.171875 68.640625 139.835938 68.042969 138.871094 67.074219 C 137.902344 66.109375 137.304688 64.773438 137.304688 63.296875 C 137.304688 61.820312 137.902344 60.484375 138.871094 59.519531 C 139.835938 58.550781 141.171875 57.953125 142.648438 57.953125 Z M 119.914062 58.75 C 119.8125 59.121094 119.429688 59.34375 119.058594 59.242188 C 118.683594 59.144531 118.464844 58.761719 118.5625 58.386719 C 120.023438 52.9375 123.222656 48.316406 127.46875 45.058594 C 131.714844 41.800781 137.007812 39.902344 142.648438 39.902344 C 148.292969 39.902344 153.582031 41.800781 157.828125 45.054688 C 162.074219 48.316406 165.277344 52.9375 166.734375 58.386719 C 166.835938 58.761719 166.613281 59.144531 166.242188 59.242188 C 165.867188 59.34375 165.484375 59.121094 165.386719 58.746094 C 164.007812 53.601562 160.988281 49.242188 156.980469 46.167969 C 152.972656 43.09375 147.980469 41.304688 142.648438 41.304688 C 137.320312 41.304688 132.324219 43.09375 128.320312 46.167969 C 124.3125 49.242188 121.292969 53.601562 119.914062 58.75 Z M 145.375 81.292969 C 147.59375 80.167969 153.585938 76.308594 152.9375 67.707031 C 145.25 72.5 145.136719 78.980469 145.375 81.292969 Z M 158.617188 83.691406 C 153.433594 82.617188 149.78125 84.789062 148.058594 86.183594 C 152.648438 86.378906 156.070312 85.378906 158.617188 83.691406 Z M 142.648438 47.03125 C 136.148438 55.003906 133.3125 61.285156 132.539062 66.175781 C 143.09375 72.347656 141.328125 81.644531 141.164062 82.410156 C 141.15625 82.464844 141.140625 82.515625 141.121094 82.566406 C 140.980469 82.925781 140.574219 83.101562 140.214844 82.960938 C 140.167969 82.945312 129.578125 78.953125 130.972656 66.910156 C 128.15625 65.402344 124.46875 64.113281 119.660156 63.253906 C 119.371094 66.121094 118.773438 76.878906 125.246094 82.589844 C 133.933594 80.121094 139.175781 86.042969 139.402344 86.300781 L 139.410156 86.308594 C 139.449219 86.351562 139.480469 86.402344 139.507812 86.453125 L 139.507812 86.457031 L 139.515625 86.472656 L 139.519531 86.484375 L 139.523438 86.488281 L 139.535156 86.515625 L 139.535156 86.519531 C 139.546875 86.550781 139.558594 86.582031 139.566406 86.613281 L 139.570312 86.628906 L 139.570312 86.648438 C 139.574219 86.65625 139.574219 86.667969 139.578125 86.679688 L 139.578125 86.699219 C 139.589844 86.8125 139.574219 86.925781 139.53125 87.023438 L 139.53125 87.027344 L 139.527344 87.039062 L 139.527344 87.042969 L 139.519531 87.054688 L 139.519531 87.058594 L 139.511719 87.070312 L 139.507812 87.085938 L 139.503906 87.085938 L 139.488281 87.117188 L 139.480469 87.128906 L 139.460938 87.164062 L 139.453125 87.175781 C 139.441406 87.195312 139.425781 87.210938 139.410156 87.226562 L 139.410156 87.230469 L 139.355469 87.285156 C 139.308594 87.328125 139.257812 87.363281 139.199219 87.394531 L 139.195312 87.394531 L 139.179688 87.402344 L 139.167969 87.40625 L 139.164062 87.410156 L 139.132812 87.421875 C 139.101562 87.433594 139.066406 87.445312 139.035156 87.449219 L 139.003906 87.457031 C 138.992188 87.460938 138.980469 87.460938 138.96875 87.460938 L 138.953125 87.460938 L 138.949219 87.464844 L 138.9375 87.464844 C 132.445312 88.089844 127.945312 86.648438 124.839844 84.1875 C 123.285156 84.710938 121.617188 85.527344 119.839844 86.726562 C 131.886719 93.734375 141.90625 88.140625 142.289062 87.921875 L 142.292969 87.917969 L 142.304688 87.914062 C 142.320312 87.90625 142.335938 87.894531 142.351562 87.886719 L 142.367188 87.878906 L 142.382812 87.875 L 142.398438 87.867188 L 142.414062 87.863281 L 142.414062 87.859375 L 142.429688 87.855469 C 142.496094 87.835938 142.5625 87.824219 142.628906 87.820312 L 142.667969 87.820312 C 142.734375 87.824219 142.800781 87.835938 142.863281 87.855469 L 142.878906 87.859375 L 142.878906 87.863281 L 142.894531 87.867188 L 142.910156 87.875 L 142.925781 87.878906 L 142.941406 87.886719 C 142.957031 87.894531 142.972656 87.902344 142.988281 87.914062 L 143 87.917969 L 143.003906 87.921875 C 143.378906 88.132812 153.398438 93.738281 165.449219 86.726562 C 163.671875 85.53125 162.003906 84.714844 160.453125 84.191406 C 157.34375 86.652344 152.847656 88.089844 146.355469 87.464844 L 146.339844 87.464844 L 146.328125 87.460938 L 146.324219 87.460938 L 146.289062 87.457031 L 146.273438 87.457031 L 146.257812 87.453125 C 146.222656 87.445312 146.191406 87.433594 146.160156 87.421875 L 146.15625 87.421875 C 146.148438 87.417969 146.136719 87.414062 146.128906 87.410156 L 146.125 87.410156 L 146.113281 87.402344 L 146.097656 87.394531 L 146.09375 87.394531 C 146.035156 87.367188 145.984375 87.328125 145.9375 87.285156 L 145.929688 87.277344 L 145.921875 87.273438 L 145.917969 87.265625 L 145.910156 87.261719 L 145.90625 87.253906 L 145.898438 87.246094 L 145.890625 87.242188 L 145.886719 87.234375 L 145.882812 87.230469 C 145.867188 87.210938 145.855469 87.195312 145.839844 87.175781 L 145.832031 87.167969 L 145.832031 87.164062 L 145.8125 87.136719 L 145.808594 87.125 L 145.804688 87.121094 L 145.796875 87.109375 L 145.78125 87.078125 L 145.777344 87.0625 L 145.761719 87.03125 C 145.722656 86.929688 145.703125 86.820312 145.714844 86.707031 L 145.714844 86.703125 L 145.71875 86.6875 L 145.71875 86.683594 L 145.722656 86.652344 L 145.730469 86.621094 C 145.738281 86.585938 145.746094 86.554688 145.757812 86.523438 C 145.761719 86.511719 145.765625 86.503906 145.769531 86.492188 L 145.773438 86.488281 L 145.777344 86.476562 L 145.785156 86.460938 L 145.785156 86.457031 C 145.8125 86.40625 145.84375 86.359375 145.882812 86.316406 L 145.890625 86.308594 C 146.117188 86.046875 151.359375 80.125 160.046875 82.597656 C 166.519531 76.886719 165.921875 66.128906 165.632812 63.261719 C 160.828125 64.121094 157.140625 65.40625 154.320312 66.914062 C 155.71875 78.960938 145.125 82.949219 145.082031 82.964844 C 144.722656 83.109375 144.316406 82.933594 144.171875 82.574219 C 144.152344 82.523438 144.140625 82.472656 144.132812 82.417969 C 143.964844 81.648438 142.199219 72.351562 152.753906 66.179688 C 151.984375 61.285156 149.148438 55.003906 142.648438 47.03125 Z M 142.148438 45.445312 L 142.152344 45.445312 L 142.160156 45.433594 L 142.164062 45.433594 C 142.179688 45.417969 142.195312 45.402344 142.214844 45.386719 L 142.21875 45.386719 C 142.234375 45.375 142.246094 45.363281 142.261719 45.355469 L 142.269531 45.347656 L 142.292969 45.335938 L 142.304688 45.324219 L 142.316406 45.320312 L 142.320312 45.316406 L 142.335938 45.308594 L 142.347656 45.308594 L 142.351562 45.304688 L 142.363281 45.300781 L 142.367188 45.296875 L 142.378906 45.292969 L 142.410156 45.277344 L 142.417969 45.277344 L 142.425781 45.273438 L 142.441406 45.269531 L 142.457031 45.261719 C 142.5 45.25 142.542969 45.242188 142.589844 45.238281 L 142.601562 45.238281 L 142.605469 45.234375 L 142.703125 45.234375 L 142.707031 45.238281 L 142.71875 45.238281 C 142.773438 45.242188 142.828125 45.253906 142.882812 45.273438 L 142.890625 45.277344 L 142.898438 45.277344 L 142.960938 45.308594 L 142.96875 45.308594 L 143 45.324219 L 143.003906 45.328125 L 143.027344 45.34375 L 143.035156 45.347656 L 143.042969 45.355469 C 143.058594 45.363281 143.074219 45.375 143.085938 45.386719 L 143.089844 45.386719 C 143.109375 45.402344 143.125 45.417969 143.140625 45.433594 L 143.144531 45.433594 L 143.15625 45.445312 C 143.171875 45.460938 143.1875 45.476562 143.199219 45.496094 C 150.011719 53.703125 153.136719 60.257812 154.109375 65.441406 C 157.148438 63.894531 161.070312 62.589844 166.140625 61.75 C 166.519531 61.6875 166.878906 61.945312 166.941406 62.328125 L 166.945312 62.34375 C 166.953125 62.398438 168.953125 75.886719 161.660156 83.132812 C 163.363281 83.792969 165.183594 84.777344 167.109375 86.179688 C 167.195312 86.234375 167.273438 86.308594 167.332031 86.398438 C 167.535156 86.726562 167.4375 87.15625 167.109375 87.363281 C 155.070312 94.949219 144.648438 90.332031 142.652344 89.3125 C 140.660156 90.332031 130.238281 94.949219 118.199219 87.363281 C 117.871094 87.15625 117.773438 86.726562 117.980469 86.398438 C 118.035156 86.308594 118.109375 86.238281 118.195312 86.183594 C 120.125 84.777344 121.945312 83.792969 123.652344 83.132812 C 116.347656 75.886719 118.351562 62.398438 118.359375 62.34375 L 118.363281 62.328125 C 118.425781 61.945312 118.785156 61.6875 119.164062 61.75 C 124.230469 62.589844 128.15625 63.894531 131.195312 65.441406 C 132.167969 60.257812 135.289062 53.703125 142.105469 45.496094 C 142.117188 45.476562 142.132812 45.460938 142.148438 45.445312 Z M 142.148438 45.445312 " clip-rule="nonzero"/></clipPath></defs><g clip-path="url(#b5316e6c3c)"><path fill="#b28267" d="M 132.359375 67.707031 C 131.714844 76.308594 137.707031 80.167969 139.921875 81.292969 C 140.164062 78.980469 140.046875 72.5 132.359375 67.707031 M 126.679688 83.6875 C 129.222656 85.378906 132.648438 86.378906 137.238281 86.183594 C 135.519531 84.789062 131.863281 82.617188 126.679688 83.6875 Z M 145.4375 60.507812 C 144.726562 59.796875 143.738281 59.355469 142.648438 59.355469 C 141.558594 59.355469 140.574219 59.796875 139.863281 60.507812 C 139.148438 61.222656 138.707031 62.207031 138.707031 63.296875 C 138.707031 64.386719 139.148438 65.371094 139.863281 66.085938 C 140.574219 66.796875 141.5625 67.238281 142.648438 67.238281 C 143.738281 67.238281 144.726562 66.796875 145.4375 66.085938 C 146.152344 65.371094 146.59375 64.386719 146.59375 63.296875 C 146.59375 62.207031 146.148438 61.222656 145.4375 60.507812 Z M 142.648438 57.953125 C 144.125 57.953125 145.460938 58.550781 146.429688 59.519531 C 147.394531 60.484375 147.992188 61.824219 147.992188 63.296875 C 147.992188 64.773438 147.394531 66.109375 146.429688 67.074219 C 145.460938 68.042969 144.125 68.640625 142.648438 68.640625 C 141.171875 68.640625 139.835938 68.042969 138.871094 67.074219 C 137.902344 66.109375 137.304688 64.773438 137.304688 63.296875 C 137.304688 61.820312 137.902344 60.484375 138.871094 59.519531 C 139.835938 58.550781 141.171875 57.953125 142.648438 57.953125 Z M 119.914062 58.75 C 119.8125 59.121094 119.429688 59.34375 119.058594 59.242188 C 118.683594 59.144531 118.464844 58.761719 118.5625 58.386719 C 120.023438 52.9375 123.222656 48.316406 127.46875 45.058594 C 131.714844 41.800781 137.007812 39.902344 142.648438 39.902344 C 148.292969 39.902344 153.582031 41.800781 157.828125 45.054688 C 162.074219 48.316406 165.277344 52.9375 166.734375 58.386719 C 166.835938 58.761719 166.613281 59.144531 166.242188 59.242188 C 165.867188 59.34375 165.484375 59.121094 165.386719 58.746094 C 164.007812 53.601562 160.988281 49.242188 156.980469 46.167969 C 152.972656 43.09375 147.980469 41.304688 142.648438 41.304688 C 137.320312 41.304688 132.324219 43.09375 128.320312 46.167969 C 124.3125 49.242188 121.292969 53.601562 119.914062 58.75 Z M 145.375 81.292969 C 147.59375 80.167969 153.585938 76.308594 152.9375 67.707031 C 145.25 72.5 145.136719 78.980469 145.375 81.292969 Z M 158.617188 83.691406 C 153.433594 82.617188 149.78125 84.789062 148.058594 86.183594 C 152.648438 86.378906 156.070312 85.378906 158.617188 83.691406 Z M 142.648438 47.03125 C 136.148438 55.003906 133.3125 61.285156 132.539062 66.175781 C 143.09375 72.347656 141.328125 81.644531 141.164062 82.410156 C 141.15625 82.464844 141.140625 82.515625 141.121094 82.566406 C 140.980469 82.925781 140.574219 83.101562 140.214844 82.960938 C 140.167969 82.945312 129.578125 78.953125 130.972656 66.910156 C 128.15625 65.402344 124.46875 64.113281 119.660156 63.253906 C 119.371094 66.121094 118.773438 76.878906 125.246094 82.589844 C 133.933594 80.121094 139.175781 86.042969 139.402344 86.300781 L 139.410156 86.308594 C 139.449219 86.351562 139.480469 86.402344 139.507812 86.453125 L 139.507812 86.457031 L 139.515625 86.472656 L 139.519531 86.484375 L 139.523438 86.488281 L 139.535156 86.515625 L 139.535156 86.519531 C 139.546875 86.550781 139.558594 86.582031 139.566406 86.613281 L 139.570312 86.628906 L 139.570312 86.648438 C 139.574219 86.65625 139.574219 86.667969 139.578125 86.679688 L 139.578125 86.699219 C 139.589844 86.8125 139.574219 86.925781 139.53125 87.023438 L 139.53125 87.027344 L 139.527344 87.039062 L 139.527344 87.042969 L 139.519531 87.054688 L 139.519531 87.058594 L 139.511719 87.070312 L 139.507812 87.085938 L 139.503906 87.085938 L 139.488281 87.117188 L 139.480469 87.128906 L 139.460938 87.164062 L 139.453125 87.175781 C 139.441406 87.195312 139.425781 87.210938 139.410156 87.226562 L 139.410156 87.230469 L 139.355469 87.285156 C 139.308594 87.328125 139.257812 87.363281 139.199219 87.394531 L 139.195312 87.394531 L 139.179688 87.402344 L 139.167969 87.40625 L 139.164062 87.410156 L 139.132812 87.421875 C 139.101562 87.433594 139.066406 87.445312 139.035156 87.449219 L 139.003906 87.457031 C 138.992188 87.460938 138.980469 87.460938 138.96875 87.460938 L 138.953125 87.460938 L 138.949219 87.464844 L 138.9375 87.464844 C 132.445312 88.089844 127.945312 86.648438 124.839844 84.1875 C 123.285156 84.710938 121.617188 85.527344 119.839844 86.726562 C 131.886719 93.734375 141.90625 88.140625 142.289062 87.921875 L 142.292969 87.917969 L 142.304688 87.914062 C 142.320312 87.90625 142.335938 87.894531 142.351562 87.886719 L 142.367188 87.878906 L 142.382812 87.875 L 142.398438 87.867188 L 142.414062 87.863281 L 142.414062 87.859375 L 142.429688 87.855469 C 142.496094 87.835938 142.5625 87.824219 142.628906 87.820312 L 142.667969 87.820312 C 142.734375 87.824219 142.800781 87.835938 142.863281 87.855469 L 142.878906 87.859375 L 142.878906 87.863281 L 142.894531 87.867188 L 142.910156 87.875 L 142.925781 87.878906 L 142.941406 87.886719 C 142.957031 87.894531 142.972656 87.902344 142.988281 87.914062 L 143 87.917969 L 143.003906 87.921875 C 143.378906 88.132812 153.398438 93.738281 165.449219 86.726562 C 163.671875 85.53125 162.003906 84.714844 160.453125 84.191406 C 157.34375 86.652344 152.847656 88.089844 146.355469 87.464844 L 146.339844 87.464844 L 146.328125 87.460938 L 146.324219 87.460938 L 146.289062 87.457031 L 146.273438 87.457031 L 146.257812 87.453125 C 146.222656 87.445312 146.191406 87.433594 146.160156 87.421875 L 146.15625 87.421875 C 146.148438 87.417969 146.136719 87.414062 146.128906 87.410156 L 146.125 87.410156 L 146.113281 87.402344 L 146.097656 87.394531 L 146.09375 87.394531 C 146.035156 87.367188 145.984375 87.328125 145.9375 87.285156 L 145.929688 87.277344 L 145.921875 87.273438 L 145.917969 87.265625 L 145.910156 87.261719 L 145.90625 87.253906 L 145.898438 87.246094 L 145.890625 87.242188 L 145.886719 87.234375 L 145.882812 87.230469 C 145.867188 87.210938 145.855469 87.195312 145.839844 87.175781 L 145.832031 87.167969 L 145.832031 87.164062 L 145.8125 87.136719 L 145.808594 87.125 L 145.804688 87.121094 L 145.796875 87.109375 L 145.78125 87.078125 L 145.777344 87.0625 L 145.761719 87.03125 C 145.722656 86.929688 145.703125 86.820312 145.714844 86.707031 L 145.714844 86.703125 L 145.71875 86.6875 L 145.71875 86.683594 L 145.722656 86.652344 L 145.730469 86.621094 C 145.738281 86.585938 145.746094 86.554688 145.757812 86.523438 C 145.761719 86.511719 145.765625 86.503906 145.769531 86.492188 L 145.773438 86.488281 L 145.777344 86.476562 L 145.785156 86.460938 L 145.785156 86.457031 C 145.8125 86.40625 145.84375 86.359375 145.882812 86.316406 L 145.890625 86.308594 C 146.117188 86.046875 151.359375 80.125 160.046875 82.597656 C 166.519531 76.886719 165.921875 66.128906 165.632812 63.261719 C 160.828125 64.121094 157.140625 65.40625 154.320312 66.914062 C 155.71875 78.960938 145.125 82.949219 145.082031 82.964844 C 144.722656 83.109375 144.316406 82.933594 144.171875 82.574219 C 144.152344 82.523438 144.140625 82.472656 144.132812 82.417969 C 143.964844 81.648438 142.199219 72.351562 152.753906 66.179688 C 151.984375 61.285156 149.148438 55.003906 142.648438 47.03125 Z M 142.148438 45.445312 L 142.152344 45.445312 L 142.160156 45.433594 L 142.164062 45.433594 C 142.179688 45.417969 142.195312 45.402344 142.214844 45.386719 L 142.21875 45.386719 C 142.234375 45.375 142.246094 45.363281 142.261719 45.355469 L 142.269531 45.347656 L 142.292969 45.335938 L 142.304688 45.324219 L 142.316406 45.320312 L 142.320312 45.316406 L 142.335938 45.308594 L 142.347656 45.308594 L 142.351562 45.304688 L 142.363281 45.300781 L 142.367188 45.296875 L 142.378906 45.292969 L 142.410156 45.277344 L 142.417969 45.277344 L 142.425781 45.273438 L 142.441406 45.269531 L 142.457031 45.261719 C 142.5 45.25 142.542969 45.242188 142.589844 45.238281 L 142.601562 45.238281 L 142.605469 45.234375 L 142.703125 45.234375 L 142.707031 45.238281 L 142.71875 45.238281 C 142.773438 45.242188 142.828125 45.253906 142.882812 45.273438 L 142.890625 45.277344 L 142.898438 45.277344 L 142.960938 45.308594 L 142.96875 45.308594 L 143 45.324219 L 143.003906 45.328125 L 143.027344 45.34375 L 143.035156 45.347656 L 143.042969 45.355469 C 143.058594 45.363281 143.074219 45.375 143.085938 45.386719 L 143.089844 45.386719 C 143.109375 45.402344 143.125 45.417969 143.140625 45.433594 L 143.144531 45.433594 L 143.15625 45.445312 C 143.171875 45.460938 143.1875 45.476562 143.199219 45.496094 C 150.011719 53.703125 153.136719 60.257812 154.109375 65.441406 C 157.148438 63.894531 161.070312 62.589844 166.140625 61.75 C 166.519531 61.6875 166.878906 61.945312 166.941406 62.328125 L 166.945312 62.34375 C 166.953125 62.398438 168.953125 75.886719 161.660156 83.132812 C 163.363281 83.792969 165.183594 84.777344 167.109375 86.179688 C 167.195312 86.234375 167.273438 86.308594 167.332031 86.398438 C 167.535156 86.726562 167.4375 87.15625 167.109375 87.363281 C 155.070312 94.949219 144.648438 90.332031 142.652344 89.3125 C 140.660156 90.332031 130.238281 94.949219 118.199219 87.363281 C 117.871094 87.15625 117.773438 86.726562 117.980469 86.398438 C 118.035156 86.308594 118.109375 86.238281 118.195312 86.183594 C 120.125 84.777344 121.945312 83.792969 123.652344 83.132812 C 116.347656 75.886719 118.351562 62.398438 118.359375 62.34375 L 118.363281 62.328125 C 118.425781 61.945312 118.785156 61.6875 119.164062 61.75 C 124.230469 62.589844 128.15625 63.894531 131.195312 65.441406 C 132.167969 60.257812 135.289062 53.703125 142.105469 45.496094 C 142.117188 45.476562 142.132812 45.460938 142.148438 45.445312 Z M 142.148438 45.445312 " fill-opacity="1" fill-rule="nonzero"/></g><g clip-path="url(#442c79fabc)"><g clip-path="url(#eb84a867b2)"><path fill="#b28267" d="M 116.347656 39.902344 L 168.949219 39.902344 L 168.949219 94.949219 L 116.347656 94.949219 Z M 116.347656 39.902344 " fill-opacity="1" fill-rule="nonzero"/></g></g><g fill="#b58676" fill-opacity="1"><g transform="translate(119.979628, 143.643133)"><g><path d="M 0.21875 -7.5625 L 2 -7.5625 L 3.734375 -4.296875 L 3.796875 -4.296875 L 5.53125 -7.5625 L 7.3125 -7.5625 L 4.5625 -2.671875 L 4.5625 0 L 2.96875 0 L 2.96875 -2.671875 Z M 0.21875 -7.5625 "/></g></g></g><g fill="#b58676" fill-opacity="1"><g transform="translate(132.175661, 143.643133)"><g><path d="M 7.59375 -3.78125 C 7.59375 -2.957031 7.4375 -2.253906 7.125 -1.671875 C 6.820312 -1.097656 6.398438 -0.65625 5.859375 -0.34375 C 5.328125 -0.0390625 4.726562 0.109375 4.0625 0.109375 C 3.394531 0.109375 2.789062 -0.0390625 2.25 -0.34375 C 1.71875 -0.65625 1.296875 -1.097656 0.984375 -1.671875 C 0.679688 -2.253906 0.53125 -2.957031 0.53125 -3.78125 C 0.53125 -4.601562 0.679688 -5.300781 0.984375 -5.875 C 1.296875 -6.457031 1.71875 -6.898438 2.25 -7.203125 C 2.789062 -7.503906 3.394531 -7.65625 4.0625 -7.65625 C 4.726562 -7.65625 5.328125 -7.503906 5.859375 -7.203125 C 6.398438 -6.898438 6.820312 -6.457031 7.125 -5.875 C 7.4375 -5.300781 7.59375 -4.601562 7.59375 -3.78125 Z M 5.984375 -3.78125 C 5.984375 -4.582031 5.804688 -5.191406 5.453125 -5.609375 C 5.109375 -6.035156 4.644531 -6.25 4.0625 -6.25 C 3.476562 -6.25 3.007812 -6.035156 2.65625 -5.609375 C 2.3125 -5.191406 2.140625 -4.582031 2.140625 -3.78125 C 2.140625 -2.976562 2.3125 -2.363281 2.65625 -1.9375 C 3.007812 -1.519531 3.476562 -1.3125 4.0625 -1.3125 C 4.644531 -1.3125 5.109375 -1.519531 5.453125 -1.9375 C 5.804688 -2.363281 5.984375 -2.976562 5.984375 -3.78125 Z M 5.984375 -3.78125 "/></g></g></g><g fill="#b58676" fill-opacity="1"><g transform="translate(144.968752, 143.643133)"><g><path d="M 5.671875 -5.109375 C 5.566406 -5.460938 5.378906 -5.738281 5.109375 -5.9375 C 4.835938 -6.144531 4.492188 -6.25 4.078125 -6.25 C 3.503906 -6.25 3.035156 -6.035156 2.671875 -5.609375 C 2.316406 -5.179688 2.140625 -4.570312 2.140625 -3.78125 C 2.140625 -2.988281 2.316406 -2.378906 2.671875 -1.953125 C 3.023438 -1.523438 3.5 -1.3125 4.09375 -1.3125 C 4.625 -1.3125 5.039062 -1.445312 5.34375 -1.71875 C 5.65625 -2 5.816406 -2.375 5.828125 -2.84375 L 4.203125 -2.84375 L 4.203125 -4.046875 L 7.359375 -4.046875 L 7.359375 -3.09375 C 7.359375 -2.425781 7.21875 -1.851562 6.9375 -1.375 C 6.65625 -0.90625 6.269531 -0.539062 5.78125 -0.28125 C 5.289062 -0.0195312 4.726562 0.109375 4.09375 0.109375 C 3.382812 0.109375 2.757812 -0.046875 2.21875 -0.359375 C 1.6875 -0.679688 1.269531 -1.128906 0.96875 -1.703125 C 0.675781 -2.285156 0.53125 -2.972656 0.53125 -3.765625 C 0.53125 -4.585938 0.6875 -5.285156 1 -5.859375 C 1.3125 -6.441406 1.734375 -6.882812 2.265625 -7.1875 C 2.796875 -7.5 3.394531 -7.65625 4.0625 -7.65625 C 4.632812 -7.65625 5.148438 -7.546875 5.609375 -7.328125 C 6.066406 -7.117188 6.441406 -6.820312 6.734375 -6.4375 C 7.035156 -6.050781 7.222656 -5.609375 7.296875 -5.109375 Z M 5.671875 -5.109375 "/></g></g></g><g fill="#b58676" fill-opacity="1"><g transform="translate(157.540704, 143.643133)"><g><path d="M 1.953125 0 L 0.25 0 L 2.859375 -7.5625 L 4.921875 -7.5625 L 7.515625 0 L 5.8125 0 L 5.25 -1.71875 L 2.515625 -1.71875 Z M 2.921875 -2.96875 L 4.84375 -2.96875 L 3.921875 -5.828125 L 3.859375 -5.828125 Z M 2.921875 -2.96875 "/></g></g></g><g fill="#b58676" fill-opacity="1"><g transform="translate(51.123491, 121.311501)"><g><path d="M 24.375 3.078125 L 24.03125 4.171875 C 23.507812 4.210938 23.117188 4.234375 22.859375 4.234375 C 21.660156 4.234375 20.6875 3.726562 19.9375 2.71875 C 19.195312 1.71875 18.828125 0.414062 18.828125 -1.1875 C 18.828125 -2.164062 19.050781 -4.007812 19.5 -6.71875 C 19.945312 -9.4375 20.46875 -11.921875 21.0625 -14.171875 C 21.1875 -14.671875 21.25 -15 21.25 -15.15625 C 21.25 -15.320312 21.175781 -15.40625 21.03125 -15.40625 C 20.894531 -15.40625 20.453125 -14.660156 19.703125 -13.171875 C 18.960938 -11.691406 18.070312 -9.875 17.03125 -7.71875 C 16 -5.5625 15.410156 -4.328125 15.265625 -4.015625 C 15.117188 -3.703125 15 -3.453125 14.90625 -3.265625 C 14.8125 -3.078125 14.628906 -2.738281 14.359375 -2.25 C 14.097656 -1.757812 13.847656 -1.328125 13.609375 -0.953125 C 12.953125 0.0351562 12.4375 0.53125 12.0625 0.53125 C 11.800781 0.53125 11.515625 0.460938 11.203125 0.328125 C 10.898438 0.191406 10.695312 0.0390625 10.59375 -0.125 C 10.375 -0.457031 10.265625 -1.507812 10.265625 -3.28125 C 10.265625 -6.976562 10.5625 -10.507812 11.15625 -13.875 C 11.351562 -14.988281 11.453125 -15.578125 11.453125 -15.640625 C 11.453125 -15.835938 11.375 -15.9375 11.21875 -15.9375 C 10.90625 -15.9375 10.398438 -14.941406 9.703125 -12.953125 L 8.828125 -10.46875 C 7.554688 -6.875 6.269531 -4.070312 4.96875 -2.0625 C 3.664062 -0.0507812 2.171875 1.359375 0.484375 2.171875 L -0.296875 0.53125 C 1.628906 -0.894531 3.113281 -2.351562 4.15625 -3.84375 C 5.207031 -5.34375 6.347656 -7.753906 7.578125 -11.078125 L 8.59375 -13.78125 C 9.289062 -15.675781 9.894531 -17.023438 10.40625 -17.828125 C 10.925781 -18.640625 11.503906 -19.046875 12.140625 -19.046875 C 13.203125 -19.046875 13.734375 -18.40625 13.734375 -17.125 C 13.734375 -17.03125 13.539062 -15.015625 13.15625 -11.078125 C 12.78125 -7.148438 12.59375 -4.5625 12.59375 -3.3125 C 12.59375 -2.957031 12.648438 -2.769531 12.765625 -2.75 C 12.867188 -2.75 12.976562 -2.847656 13.09375 -3.046875 C 14.707031 -5.734375 16.253906 -8.65625 17.734375 -11.8125 C 17.910156 -12.21875 18.21875 -12.90625 18.65625 -13.875 C 19.09375 -14.851562 19.519531 -15.71875 19.9375 -16.46875 C 20.351562 -17.226562 20.671875 -17.691406 20.890625 -17.859375 C 21.109375 -18.023438 21.457031 -18.109375 21.9375 -18.109375 C 22.414062 -18.109375 22.828125 -17.9375 23.171875 -17.59375 C 23.523438 -17.25 23.703125 -16.835938 23.703125 -16.359375 C 23.703125 -15.878906 23.628906 -15.332031 23.484375 -14.71875 C 21.929688 -7.132812 21.15625 -2.597656 21.15625 -1.109375 C 21.15625 0.367188 21.394531 1.378906 21.875 1.921875 C 22.351562 2.472656 23.1875 2.859375 24.375 3.078125 Z M 24.375 3.078125 "/></g></g></g><g fill="#b58676" fill-opacity="1"><g transform="translate(75.203015, 121.311501)"><g><path d="M 13.09375 -3.015625 L 13.78125 -2.5 C 13.507812 -1.90625 13 -1.335938 12.25 -0.796875 C 11.5 -0.265625 10.816406 0 10.203125 0 C 9.035156 0 8.453125 -0.613281 8.453125 -1.84375 C 8.453125 -2.425781 8.597656 -3.113281 8.890625 -3.90625 L 7.796875 -2.78125 C 6.710938 -1.6875 5.773438 -0.945312 4.984375 -0.5625 C 4.203125 -0.1875 3.429688 0 2.671875 0 C 1.921875 0 1.351562 -0.210938 0.96875 -0.640625 C 0.582031 -1.066406 0.390625 -1.660156 0.390625 -2.421875 C 0.390625 -3.804688 0.925781 -5.179688 2 -6.546875 C 3.070312 -7.910156 4.441406 -9.019531 6.109375 -9.875 C 7.785156 -10.726562 9.457031 -11.164062 11.125 -11.1875 L 11.1875 -10.203125 L 9.9375 -9.9375 C 8.125 -9.539062 6.523438 -8.742188 5.140625 -7.546875 C 3.765625 -6.359375 3.078125 -5.171875 3.078125 -3.984375 C 3.078125 -2.796875 3.550781 -2.203125 4.5 -2.203125 C 5.394531 -2.203125 6.5 -2.828125 7.8125 -4.078125 C 9.125 -5.335938 10.222656 -6.8125 11.109375 -8.5 L 12.359375 -7.765625 C 11.117188 -5.273438 10.5 -3.691406 10.5 -3.015625 C 10.5 -2.734375 10.59375 -2.5 10.78125 -2.3125 C 10.976562 -2.125 11.171875 -2.03125 11.359375 -2.03125 C 11.546875 -2.03125 11.664062 -2.039062 11.71875 -2.0625 C 11.78125 -2.082031 11.84375 -2.101562 11.90625 -2.125 C 11.96875 -2.15625 12.039062 -2.203125 12.125 -2.265625 C 12.21875 -2.328125 12.296875 -2.382812 12.359375 -2.4375 C 12.429688 -2.5 12.546875 -2.585938 12.703125 -2.703125 C 12.867188 -2.828125 13 -2.929688 13.09375 -3.015625 Z M 13.09375 -3.015625 "/></g></g></g><g fill="#b58676" fill-opacity="1"><g transform="translate(89.197194, 121.311501)"><g><path d="M 9.4375 -4.203125 C 9.46875 -3.847656 9.484375 -3.5625 9.484375 -3.34375 C 8.429688 -3.082031 7.476562 -2.785156 6.625 -2.453125 C 5.882812 1.085938 4.925781 3.765625 3.75 5.578125 C 2.582031 7.390625 1.09375 8.296875 -0.71875 8.296875 C -1.613281 8.296875 -2.3125 8.023438 -2.8125 7.484375 C -3.320312 6.953125 -3.578125 6.21875 -3.578125 5.28125 C -3.578125 3.59375 -2.84375 2.054688 -1.375 0.671875 C 0.09375 -0.710938 2.234375 -1.898438 5.046875 -2.890625 C 5.941406 -6.296875 7.015625 -9.640625 8.265625 -12.921875 C 8.640625 -13.921875 8.847656 -14.519531 8.890625 -14.71875 L 10.390625 -14.234375 C 9.828125 -13.003906 9.140625 -11.179688 8.328125 -8.765625 C 7.523438 -6.359375 7.046875 -4.609375 6.890625 -3.515625 Z M 4.921875 -1.734375 C 2.429688 -0.492188 0.859375 0.476562 0.203125 1.1875 C -0.648438 2.125 -1.078125 3.101562 -1.078125 4.125 C -1.078125 4.5625 -0.945312 4.90625 -0.6875 5.15625 C -0.425781 5.414062 -0.078125 5.546875 0.359375 5.546875 C 1.253906 5.546875 2.113281 4.863281 2.9375 3.5 C 3.757812 2.144531 4.421875 0.398438 4.921875 -1.734375 Z M 12.625 -18.375 C 12.625 -17.945312 12.519531 -17.539062 12.3125 -17.15625 C 12.101562 -16.78125 11.765625 -16.59375 11.296875 -16.59375 C 10.828125 -16.59375 10.425781 -16.722656 10.09375 -16.984375 C 9.769531 -17.242188 9.609375 -17.601562 9.609375 -18.0625 C 9.609375 -18.53125 9.765625 -18.945312 10.078125 -19.3125 C 10.398438 -19.6875 10.765625 -19.875 11.171875 -19.875 C 11.578125 -19.875 11.921875 -19.726562 12.203125 -19.4375 C 12.484375 -19.15625 12.625 -18.800781 12.625 -18.375 Z M 12.625 -18.375 "/></g></g></g><g fill="#b58676" fill-opacity="1"><g transform="translate(101.222039, 121.311501)"><g><path d="M 13.09375 -3.015625 L 13.78125 -2.5 C 13.507812 -1.90625 13 -1.335938 12.25 -0.796875 C 11.5 -0.265625 10.816406 0 10.203125 0 C 9.035156 0 8.453125 -0.613281 8.453125 -1.84375 C 8.453125 -2.425781 8.597656 -3.113281 8.890625 -3.90625 L 7.796875 -2.78125 C 6.710938 -1.6875 5.773438 -0.945312 4.984375 -0.5625 C 4.203125 -0.1875 3.429688 0 2.671875 0 C 1.921875 0 1.351562 -0.210938 0.96875 -0.640625 C 0.582031 -1.066406 0.390625 -1.660156 0.390625 -2.421875 C 0.390625 -3.804688 0.925781 -5.179688 2 -6.546875 C 3.070312 -7.910156 4.441406 -9.019531 6.109375 -9.875 C 7.785156 -10.726562 9.457031 -11.164062 11.125 -11.1875 L 11.1875 -10.203125 L 9.9375 -9.9375 C 8.125 -9.539062 6.523438 -8.742188 5.140625 -7.546875 C 3.765625 -6.359375 3.078125 -5.171875 3.078125 -3.984375 C 3.078125 -2.796875 3.550781 -2.203125 4.5 -2.203125 C 5.394531 -2.203125 6.5 -2.828125 7.8125 -4.078125 C 9.125 -5.335938 10.222656 -6.8125 11.109375 -8.5 L 12.359375 -7.765625 C 11.117188 -5.273438 10.5 -3.691406 10.5 -3.015625 C 10.5 -2.734375 10.59375 -2.5 10.78125 -2.3125 C 10.976562 -2.125 11.171875 -2.03125 11.359375 -2.03125 C 11.546875 -2.03125 11.664062 -2.039062 11.71875 -2.0625 C 11.78125 -2.082031 11.84375 -2.101562 11.90625 -2.125 C 11.96875 -2.15625 12.039062 -2.203125 12.125 -2.265625 C 12.21875 -2.328125 12.296875 -2.382812 12.359375 -2.4375 C 12.429688 -2.5 12.546875 -2.585938 12.703125 -2.703125 C 12.867188 -2.828125 13 -2.929688 13.09375 -3.015625 Z M 13.09375 -3.015625 "/></g></g></g><g fill="#b58676" fill-opacity="1"><g transform="translate(115.216218, 121.311501)"><g/></g></g><g fill="#b58676" fill-opacity="1"><g transform="translate(129.538619, 121.311501)"><g><path d="M 14.75 -18.53125 L 21.8125 -18.328125 C 22.175781 -18.328125 22.628906 -18.410156 23.171875 -18.578125 C 23.722656 -18.742188 24.085938 -18.828125 24.265625 -18.828125 C 24.441406 -18.828125 24.582031 -18.769531 24.6875 -18.65625 C 24.800781 -18.550781 24.859375 -18.421875 24.859375 -18.265625 C 24.859375 -17.847656 24.664062 -17.492188 24.28125 -17.203125 C 23.90625 -16.910156 23.410156 -16.707031 22.796875 -16.59375 C 21.640625 -16.332031 20.617188 -16.203125 19.734375 -16.203125 C 18.515625 -15.367188 17.328125 -12.960938 16.171875 -8.984375 C 18.140625 -8.984375 19.363281 -8.953125 19.84375 -8.890625 L 19.78125 -7.484375 C 19.488281 -7.472656 19.039062 -7.46875 18.4375 -7.46875 L 15.734375 -7.546875 C 14.617188 -4.148438 13.113281 -1.445312 11.21875 0.5625 C 9.332031 2.570312 7.332031 3.578125 5.21875 3.578125 C 3.925781 3.578125 2.878906 3.1875 2.078125 2.40625 C 1.285156 1.632812 0.890625 0.613281 0.890625 -0.65625 C 0.890625 -2.707031 2.113281 -4.570312 4.5625 -6.25 C 7.007812 -7.9375 10.023438 -8.828125 13.609375 -8.921875 C 14.816406 -12.742188 16.238281 -15.171875 17.875 -16.203125 L 13.078125 -16.390625 C 11.066406 -16.390625 9.566406 -16.128906 8.578125 -15.609375 C 7.597656 -15.085938 7.109375 -14.398438 7.109375 -13.546875 C 7.109375 -13.085938 7.296875 -12.703125 7.671875 -12.390625 C 8.046875 -12.085938 8.421875 -11.9375 8.796875 -11.9375 C 9.179688 -11.9375 9.46875 -11.953125 9.65625 -11.984375 C 9.84375 -12.015625 10.078125 -12.082031 10.359375 -12.1875 C 10.648438 -12.300781 10.859375 -12.378906 10.984375 -12.421875 C 11.398438 -12.554688 11.90625 -12.773438 12.5 -13.078125 L 13.125 -12.296875 C 11.613281 -10.785156 9.960938 -10.03125 8.171875 -10.03125 C 7.378906 -10.03125 6.722656 -10.273438 6.203125 -10.765625 C 5.691406 -11.265625 5.4375 -11.894531 5.4375 -12.65625 C 5.4375 -14.300781 6.28125 -15.691406 7.96875 -16.828125 C 9.65625 -17.960938 11.914062 -18.53125 14.75 -18.53125 Z M 10.5625 -1.84375 C 11.632812 -3.519531 12.488281 -5.394531 13.125 -7.46875 C 10.664062 -7.257812 8.492188 -6.46875 6.609375 -5.09375 C 4.734375 -3.726562 3.796875 -2.257812 3.796875 -0.6875 C 3.796875 -0.0703125 4.007812 0.429688 4.4375 0.828125 C 4.863281 1.234375 5.421875 1.4375 6.109375 1.4375 C 6.804688 1.4375 7.5625 1.140625 8.375 0.546875 C 9.195312 -0.0351562 9.925781 -0.832031 10.5625 -1.84375 Z M 10.5625 -1.84375 "/></g></g></g><g fill="#b58676" fill-opacity="1"><g transform="translate(152.305265, 121.311501)"><g><path d="M 8.65625 -10.5625 C 9.15625 -10.5625 9.5625 -10.390625 9.875 -10.046875 C 10.195312 -9.710938 10.359375 -9.28125 10.359375 -8.75 C 10.359375 -7.664062 9.738281 -6.53125 8.5 -5.34375 L 7.796875 -5.90625 C 8.066406 -6.519531 8.203125 -6.96875 8.203125 -7.25 C 8.203125 -7.789062 7.90625 -8.0625 7.3125 -8.0625 C 6.71875 -8.0625 6.148438 -7.679688 5.609375 -6.921875 C 5.078125 -6.171875 4.445312 -5.003906 3.71875 -3.421875 C 2.988281 -1.835938 2.4375 -0.71875 2.0625 -0.0625 L 0.359375 -0.8125 C 1.453125 -3.289062 2.078125 -4.75 2.234375 -5.1875 C 2.773438 -6.738281 3.046875 -8.710938 3.046875 -11.109375 L 4.71875 -11.546875 C 4.65625 -10.253906 4.5625 -9.253906 4.4375 -8.546875 C 4.320312 -7.835938 4.035156 -6.691406 3.578125 -5.109375 C 5.585938 -8.742188 7.28125 -10.5625 8.65625 -10.5625 Z M 8.65625 -10.5625 "/></g></g></g><g fill="#b58676" fill-opacity="1"><g transform="translate(162.897867, 121.311501)"><g><path d="M 13.09375 -3.015625 L 13.78125 -2.5 C 13.507812 -1.90625 13 -1.335938 12.25 -0.796875 C 11.5 -0.265625 10.816406 0 10.203125 0 C 9.035156 0 8.453125 -0.613281 8.453125 -1.84375 C 8.453125 -2.425781 8.597656 -3.113281 8.890625 -3.90625 L 7.796875 -2.78125 C 6.710938 -1.6875 5.773438 -0.945312 4.984375 -0.5625 C 4.203125 -0.1875 3.429688 0 2.671875 0 C 1.921875 0 1.351562 -0.210938 0.96875 -0.640625 C 0.582031 -1.066406 0.390625 -1.660156 0.390625 -2.421875 C 0.390625 -3.804688 0.925781 -5.179688 2 -6.546875 C 3.070312 -7.910156 4.441406 -9.019531 6.109375 -9.875 C 7.785156 -10.726562 9.457031 -11.164062 11.125 -11.1875 L 11.1875 -10.203125 L 9.9375 -9.9375 C 8.125 -9.539062 6.523438 -8.742188 5.140625 -7.546875 C 3.765625 -6.359375 3.078125 -5.171875 3.078125 -3.984375 C 3.078125 -2.796875 3.550781 -2.203125 4.5 -2.203125 C 5.394531 -2.203125 6.5 -2.828125 7.8125 -4.078125 C 9.125 -5.335938 10.222656 -6.8125 11.109375 -8.5 L 12.359375 -7.765625 C 11.117188 -5.273438 10.5 -3.691406 10.5 -3.015625 C 10.5 -2.734375 10.59375 -2.5 10.78125 -2.3125 C 10.976562 -2.125 11.171875 -2.03125 11.359375 -2.03125 C 11.546875 -2.03125 11.664062 -2.039062 11.71875 -2.0625 C 11.78125 -2.082031 11.84375 -2.101562 11.90625 -2.125 C 11.96875 -2.15625 12.039062 -2.203125 12.125 -2.265625 C 12.21875 -2.328125 12.296875 -2.382812 12.359375 -2.4375 C 12.429688 -2.5 12.546875 -2.585938 12.703125 -2.703125 C 12.867188 -2.828125 13 -2.929688 13.09375 -3.015625 Z M 13.09375 -3.015625 "/></g></g></g><g fill="#b58676" fill-opacity="1"><g transform="translate(176.892046, 121.311501)"><g><path d="M 12.796875 -3.609375 L 13.4375 -3.140625 C 12.988281 -2.265625 12.378906 -1.523438 11.609375 -0.921875 C 10.847656 -0.328125 10.160156 -0.03125 9.546875 -0.03125 C 8.929688 -0.03125 8.441406 -0.207031 8.078125 -0.5625 C 7.722656 -0.925781 7.546875 -1.375 7.546875 -1.90625 C 7.546875 -2.445312 7.890625 -3.390625 8.578125 -4.734375 C 9.265625 -6.078125 9.609375 -7.066406 9.609375 -7.703125 C 9.609375 -7.984375 9.492188 -8.234375 9.265625 -8.453125 C 9.035156 -8.679688 8.765625 -8.796875 8.453125 -8.796875 C 7.429688 -8.796875 6.398438 -8.023438 5.359375 -6.484375 C 4.328125 -4.941406 3.175781 -2.722656 1.90625 0.171875 L 0.125 -0.453125 C 0.5 -2.753906 1.039062 -5.003906 1.75 -7.203125 C 2.457031 -9.398438 3.109375 -10.976562 3.703125 -11.9375 L 4.921875 -11.546875 C 4.367188 -10.140625 3.664062 -7.703125 2.8125 -4.234375 C 5.550781 -8.929688 8.078125 -11.28125 10.390625 -11.28125 C 10.878906 -11.28125 11.285156 -11.109375 11.609375 -10.765625 C 11.941406 -10.429688 12.109375 -10.035156 12.109375 -9.578125 C 12.109375 -9.117188 12.050781 -8.707031 11.9375 -8.34375 C 11.820312 -7.976562 11.445312 -7.125 10.8125 -5.78125 C 10.1875 -4.4375 9.875 -3.59375 9.875 -3.25 C 9.875 -2.914062 9.972656 -2.648438 10.171875 -2.453125 C 10.367188 -2.265625 10.554688 -2.171875 10.734375 -2.171875 C 10.921875 -2.171875 11.070312 -2.203125 11.1875 -2.265625 C 11.3125 -2.328125 11.445312 -2.414062 11.59375 -2.53125 C 11.738281 -2.65625 11.867188 -2.765625 11.984375 -2.859375 C 12.109375 -2.960938 12.253906 -3.097656 12.421875 -3.265625 C 12.597656 -3.429688 12.722656 -3.546875 12.796875 -3.609375 Z M 12.796875 -3.609375 "/></g></g></g><g fill="#b58676" fill-opacity="1"><g transform="translate(190.737026, 121.311501)"><g><path d="M 12.359375 -3.046875 L 13.09375 -2.390625 C 11.945312 -0.492188 10.726562 0.453125 9.4375 0.453125 C 8.632812 0.453125 7.816406 -0.132812 6.984375 -1.3125 C 6.148438 -2.488281 5.734375 -3.453125 5.734375 -4.203125 C 5.734375 -4.679688 6.445312 -5.160156 7.875 -5.640625 C 8.414062 -5.816406 8.910156 -6.085938 9.359375 -6.453125 C 9.804688 -6.828125 10.03125 -7.210938 10.03125 -7.609375 C 10.03125 -8.003906 9.921875 -8.304688 9.703125 -8.515625 C 9.484375 -8.722656 9.203125 -8.828125 8.859375 -8.828125 C 6.671875 -8.628906 4.382812 -5.6875 2 0 L 0.171875 -0.625 C 0.171875 -1.476562 1.328125 -4.9375 3.640625 -11 C 5.960938 -17.070312 7.613281 -20.75 8.59375 -22.03125 L 10.0625 -21.484375 C 7.375 -16.804688 5.125 -11.375 3.3125 -5.1875 C 4.863281 -7.519531 6.195312 -9.070312 7.3125 -9.84375 C 8.425781 -10.625 9.488281 -11.015625 10.5 -11.015625 C 11.125 -11.015625 11.617188 -10.820312 11.984375 -10.4375 C 12.347656 -10.0625 12.53125 -9.582031 12.53125 -9 C 12.53125 -8.414062 12.382812 -7.882812 12.09375 -7.40625 C 11.8125 -6.925781 11.398438 -6.503906 10.859375 -6.140625 C 10.085938 -5.628906 9.132812 -5.125 8 -4.625 C 8.175781 -3.6875 8.484375 -2.976562 8.921875 -2.5 C 9.359375 -2.03125 9.859375 -1.796875 10.421875 -1.796875 C 10.710938 -1.796875 11.359375 -2.210938 12.359375 -3.046875 Z M 12.359375 -3.046875 "/></g></g></g><g fill="#b58676" fill-opacity="1"><g transform="translate(204.253784, 121.311501)"><g><path d="M 4.953125 -2.859375 L 5.578125 -2.359375 C 4.898438 -1.304688 4.316406 -0.546875 3.828125 -0.078125 C 3.347656 0.390625 2.804688 0.625 2.203125 0.625 C 1.609375 0.625 1.117188 0.382812 0.734375 -0.09375 C 0.359375 -0.570312 0.171875 -1.164062 0.171875 -1.875 C 0.171875 -3.269531 1.085938 -6.269531 2.921875 -10.875 C 4.753906 -15.476562 6.632812 -19.535156 8.5625 -23.046875 L 9.875 -22.328125 C 7.925781 -18.546875 6.164062 -14.789062 4.59375 -11.0625 C 3.019531 -7.332031 2.234375 -4.648438 2.234375 -3.015625 C 2.234375 -2.078125 2.582031 -1.609375 3.28125 -1.609375 C 3.84375 -1.609375 4.398438 -2.023438 4.953125 -2.859375 Z M 4.953125 -2.859375 "/></g></g></g><g fill="#b58676" fill-opacity="1"><g transform="translate(212.33997, 121.311501)"><g><path d="M 6.390625 -12.65625 C 5.273438 -12.65625 4.71875 -13.101562 4.71875 -14 C 4.71875 -14.5 4.851562 -14.914062 5.125 -15.25 C 5.40625 -15.582031 5.765625 -15.75 6.203125 -15.75 C 6.640625 -15.75 7 -15.617188 7.28125 -15.359375 C 7.5625 -15.109375 7.703125 -14.773438 7.703125 -14.359375 C 7.703125 -13.941406 7.582031 -13.550781 7.34375 -13.1875 C 7.101562 -12.832031 6.785156 -12.65625 6.390625 -12.65625 Z M 6 -3.84375 L 6.59375 -3.34375 C 6.113281 -2.425781 5.476562 -1.644531 4.6875 -1 C 3.90625 -0.351562 3.195312 -0.03125 2.5625 -0.03125 C 1.445312 -0.03125 0.890625 -0.804688 0.890625 -2.359375 C 0.890625 -4.285156 1.6875 -6.800781 3.28125 -9.90625 C 3.632812 -10.582031 3.84375 -10.984375 3.90625 -11.109375 L 5.1875 -10.328125 C 4.769531 -9.566406 4.257812 -8.359375 3.65625 -6.703125 C 3.050781 -5.054688 2.75 -4 2.75 -3.53125 C 2.75 -3.0625 2.847656 -2.726562 3.046875 -2.53125 C 3.242188 -2.332031 3.484375 -2.234375 3.765625 -2.234375 C 4.296875 -2.234375 5.039062 -2.769531 6 -3.84375 Z M 6 -3.84375 "/></g></g></g><g fill="#b58676" fill-opacity="1"><g transform="translate(220.336639, 121.311501)"><g><path d="M 12.796875 -3.609375 L 13.4375 -3.140625 C 12.988281 -2.265625 12.378906 -1.523438 11.609375 -0.921875 C 10.847656 -0.328125 10.160156 -0.03125 9.546875 -0.03125 C 8.929688 -0.03125 8.441406 -0.207031 8.078125 -0.5625 C 7.722656 -0.925781 7.546875 -1.375 7.546875 -1.90625 C 7.546875 -2.445312 7.890625 -3.390625 8.578125 -4.734375 C 9.265625 -6.078125 9.609375 -7.066406 9.609375 -7.703125 C 9.609375 -7.984375 9.492188 -8.234375 9.265625 -8.453125 C 9.035156 -8.679688 8.765625 -8.796875 8.453125 -8.796875 C 7.429688 -8.796875 6.398438 -8.023438 5.359375 -6.484375 C 4.328125 -4.941406 3.175781 -2.722656 1.90625 0.171875 L 0.125 -0.453125 C 0.5 -2.753906 1.039062 -5.003906 1.75 -7.203125 C 2.457031 -9.398438 3.109375 -10.976562 3.703125 -11.9375 L 4.921875 -11.546875 C 4.367188 -10.140625 3.664062 -7.703125 2.8125 -4.234375 C 5.550781 -8.929688 8.078125 -11.28125 10.390625 -11.28125 C 10.878906 -11.28125 11.285156 -11.109375 11.609375 -10.765625 C 11.941406 -10.429688 12.109375 -10.035156 12.109375 -9.578125 C 12.109375 -9.117188 12.050781 -8.707031 11.9375 -8.34375 C 11.820312 -7.976562 11.445312 -7.125 10.8125 -5.78125 C 10.1875 -4.4375 9.875 -3.59375 9.875 -3.25 C 9.875 -2.914062 9.972656 -2.648438 10.171875 -2.453125 C 10.367188 -2.265625 10.554688 -2.171875 10.734375 -2.171875 C 10.921875 -2.171875 11.070312 -2.203125 11.1875 -2.265625 C 11.3125 -2.328125 11.445312 -2.414062 11.59375 -2.53125 C 11.738281 -2.65625 11.867188 -2.765625 11.984375 -2.859375 C 12.109375 -2.960938 12.253906 -3.097656 12.421875 -3.265625 C 12.597656 -3.429688 12.722656 -3.546875 12.796875 -3.609375 Z M 12.796875 -3.609375 "/></g></g></g></svg>