<?xml version="1.0" ?><svg xmlns="http://www.w3.org/2000/svg" xmlns:xlink="http://www.w3.org/1999/xlink" width="500" zoomAndPan="magnify" viewBox="0 0 375 374.999991" height="500" preserveAspectRatio="xMidYMid meet" version="1.2"><defs><clipPath id="023e15b7ff"><path d="M 163 101.566406 L 212 101.566406 L 212 153 L 163 153 Z M 163 101.566406 "/></clipPath><clipPath id="24f45150ab"><path d="M 163.160156 101.566406 L 211.835938 101.566406 L 211.835938 152.238281 L 163.160156 152.238281 Z M 163.160156 101.566406 "/></clipPath><clipPath id="92215dddc3"><path d="M 177.421875 128.785156 C 176.789062 137.203125 182.65625 140.980469 184.824219 142.082031 C 185.0625 139.816406 184.949219 133.472656 177.421875 128.785156 M 171.859375 144.429688 C 174.351562 146.085938 177.703125 147.0625 182.199219 146.871094 C 180.515625 145.507812 176.933594 143.378906 171.859375 144.429688 Z M 190.226562 121.734375 C 189.527344 121.035156 188.5625 120.605469 187.496094 120.605469 C 186.429688 120.605469 185.464844 121.039062 184.765625 121.734375 C 184.070312 122.433594 183.636719 123.398438 183.636719 124.464844 C 183.636719 125.53125 184.070312 126.496094 184.765625 127.195312 C 185.464844 127.890625 186.429688 128.324219 187.496094 128.324219 C 188.5625 128.324219 189.527344 127.890625 190.226562 127.195312 C 190.925781 126.496094 191.355469 125.53125 191.355469 124.464844 C 191.355469 123.398438 190.921875 122.433594 190.226562 121.734375 Z M 187.496094 119.234375 C 188.941406 119.234375 190.25 119.820312 191.195312 120.765625 C 192.140625 121.710938 192.726562 123.019531 192.726562 124.464844 C 192.726562 125.910156 192.140625 127.21875 191.195312 128.164062 C 190.25 129.113281 188.941406 129.695312 187.496094 129.695312 C 186.050781 129.695312 184.742188 129.109375 183.796875 128.164062 C 182.847656 127.21875 182.265625 125.910156 182.265625 124.464844 C 182.265625 123.019531 182.851562 121.710938 183.796875 120.765625 C 184.742188 119.820312 186.050781 119.234375 187.496094 119.234375 Z M 165.238281 120.011719 C 165.140625 120.375 164.765625 120.59375 164.398438 120.496094 C 164.035156 120.398438 163.816406 120.023438 163.914062 119.660156 C 165.34375 114.324219 168.476562 109.796875 172.632812 106.609375 C 176.792969 103.417969 181.972656 101.5625 187.496094 101.5625 C 193.019531 101.5625 198.199219 103.417969 202.355469 106.605469 C 206.511719 109.796875 209.648438 114.320312 211.078125 119.65625 C 211.175781 120.023438 210.957031 120.398438 210.59375 120.496094 C 210.226562 120.59375 209.851562 120.375 209.753906 120.011719 C 208.40625 114.972656 205.449219 110.703125 201.527344 107.691406 C 197.601562 104.683594 192.714844 102.933594 187.496094 102.933594 C 182.28125 102.933594 177.386719 104.683594 173.464844 107.691406 C 169.542969 110.703125 166.585938 114.972656 165.238281 120.011719 Z M 190.164062 142.082031 C 192.335938 140.980469 198.203125 137.203125 197.570312 128.78125 C 190.042969 133.472656 189.929688 139.816406 190.164062 142.082031 Z M 203.128906 144.429688 C 198.054688 143.382812 194.476562 145.507812 192.789062 146.871094 C 197.285156 147.0625 200.636719 146.085938 203.128906 144.429688 Z M 187.496094 108.539062 C 181.132812 116.347656 178.355469 122.496094 177.597656 127.28125 C 187.929688 133.324219 186.203125 142.425781 186.039062 143.179688 C 186.03125 143.230469 186.019531 143.28125 186 143.332031 C 185.859375 143.683594 185.460938 143.855469 185.109375 143.714844 C 185.066406 143.699219 174.695312 139.792969 176.066406 128 C 173.304688 126.523438 169.695312 125.265625 164.988281 124.421875 C 164.703125 127.230469 164.121094 137.761719 170.457031 143.351562 C 178.960938 140.933594 184.09375 146.734375 184.316406 146.988281 L 184.324219 146.996094 C 184.359375 147.039062 184.390625 147.085938 184.417969 147.136719 L 184.425781 147.152344 L 184.433594 147.164062 L 184.433594 147.167969 L 184.445312 147.195312 L 184.445312 147.199219 C 184.457031 147.230469 184.46875 147.261719 184.476562 147.292969 L 184.480469 147.308594 L 184.480469 147.324219 C 184.484375 147.335938 184.484375 147.347656 184.488281 147.355469 L 184.488281 147.378906 C 184.5 147.488281 184.484375 147.597656 184.445312 147.695312 L 184.4375 147.710938 L 184.433594 147.726562 L 184.425781 147.742188 L 184.417969 147.753906 L 184.417969 147.757812 L 184.410156 147.769531 L 184.402344 147.785156 L 184.394531 147.796875 L 184.375 147.832031 L 184.367188 147.84375 C 184.355469 147.859375 184.339844 147.878906 184.324219 147.894531 L 184.308594 147.910156 L 184.304688 147.917969 L 184.285156 147.9375 L 184.277344 147.941406 L 184.269531 147.949219 C 184.222656 147.992188 184.171875 148.027344 184.117188 148.054688 L 184.113281 148.058594 L 184.097656 148.0625 L 184.085938 148.070312 L 184.082031 148.070312 L 184.054688 148.082031 L 184.050781 148.082031 C 184.019531 148.097656 183.988281 148.105469 183.957031 148.113281 L 183.941406 148.117188 L 183.925781 148.117188 C 183.914062 148.121094 183.902344 148.121094 183.894531 148.121094 L 183.890625 148.121094 L 183.875 148.125 L 183.859375 148.125 C 177.503906 148.738281 173.101562 147.328125 170.058594 144.917969 C 168.539062 145.429688 166.90625 146.230469 165.164062 147.402344 C 176.960938 154.265625 186.769531 148.785156 187.144531 148.570312 L 187.148438 148.570312 L 187.15625 148.566406 C 187.171875 148.554688 187.1875 148.546875 187.203125 148.539062 L 187.21875 148.53125 L 187.234375 148.527344 L 187.25 148.519531 L 187.265625 148.515625 L 187.28125 148.507812 C 187.34375 148.488281 187.410156 148.476562 187.472656 148.476562 L 187.511719 148.476562 C 187.578125 148.476562 187.644531 148.488281 187.707031 148.507812 L 187.71875 148.515625 L 187.722656 148.515625 L 187.734375 148.519531 L 187.738281 148.519531 L 187.75 148.527344 L 187.765625 148.53125 L 187.78125 148.539062 C 187.796875 148.546875 187.8125 148.554688 187.828125 148.566406 L 187.839844 148.570312 C 188.207031 148.78125 198.019531 154.265625 209.816406 147.402344 C 208.078125 146.230469 206.445312 145.433594 204.925781 144.921875 C 201.882812 147.328125 197.480469 148.738281 191.125 148.128906 L 191.113281 148.125 L 191.09375 148.125 L 191.0625 148.121094 L 191.046875 148.117188 L 191.042969 148.117188 L 191.027344 148.113281 C 190.996094 148.105469 190.960938 148.097656 190.933594 148.085938 L 190.929688 148.082031 C 190.921875 148.082031 190.910156 148.074219 190.898438 148.070312 L 190.886719 148.066406 L 190.871094 148.058594 L 190.867188 148.058594 C 190.8125 148.027344 190.761719 147.992188 190.714844 147.949219 L 190.707031 147.941406 L 190.699219 147.9375 L 190.660156 147.898438 L 190.660156 147.894531 C 190.644531 147.878906 190.632812 147.863281 190.621094 147.84375 L 190.613281 147.835938 L 190.613281 147.832031 L 190.59375 147.804688 L 190.585938 147.792969 L 190.585938 147.789062 L 190.578125 147.777344 L 190.5625 147.746094 L 190.554688 147.734375 L 190.554688 147.730469 L 190.550781 147.71875 L 190.550781 147.714844 L 190.542969 147.703125 L 190.542969 147.699219 C 190.503906 147.601562 190.488281 147.496094 190.5 147.382812 L 190.5 147.363281 L 190.503906 147.332031 L 190.507812 147.316406 L 190.507812 147.3125 L 190.511719 147.300781 C 190.519531 147.265625 190.527344 147.234375 190.539062 147.203125 C 190.542969 147.191406 190.546875 147.183594 190.550781 147.175781 L 190.550781 147.171875 L 190.558594 147.160156 L 190.566406 147.144531 L 190.566406 147.140625 C 190.59375 147.089844 190.625 147.042969 190.664062 147 L 190.667969 146.992188 L 190.671875 146.992188 C 190.890625 146.738281 196.023438 140.941406 204.527344 143.359375 C 210.863281 137.769531 210.28125 127.234375 210 124.429688 C 205.292969 125.269531 201.683594 126.53125 198.921875 128.007812 C 200.289062 139.800781 189.917969 143.703125 189.878906 143.722656 C 189.523438 143.859375 189.125 143.6875 188.988281 143.335938 C 188.96875 143.289062 188.953125 143.238281 188.949219 143.183594 C 188.785156 142.429688 187.054688 133.328125 197.390625 127.289062 C 196.636719 122.492188 193.855469 116.347656 187.496094 108.539062 Z M 187.003906 106.988281 L 187.007812 106.984375 L 187.019531 106.976562 L 187.019531 106.972656 C 187.035156 106.957031 187.050781 106.945312 187.070312 106.929688 L 187.074219 106.929688 C 187.085938 106.917969 187.101562 106.90625 187.117188 106.898438 L 187.125 106.890625 L 187.132812 106.886719 L 187.144531 106.878906 L 187.238281 106.832031 L 187.246094 106.832031 L 187.269531 106.820312 L 187.277344 106.820312 L 187.300781 106.808594 L 187.308594 106.808594 C 187.351562 106.796875 187.394531 106.789062 187.4375 106.785156 L 187.449219 106.785156 L 187.453125 106.78125 L 187.546875 106.78125 L 187.554688 106.785156 L 187.5625 106.785156 C 187.617188 106.789062 187.671875 106.800781 187.722656 106.820312 L 187.730469 106.820312 L 187.753906 106.832031 L 187.761719 106.832031 L 187.839844 106.871094 L 187.84375 106.875 L 187.867188 106.886719 L 187.871094 106.890625 L 187.882812 106.898438 C 187.894531 106.90625 187.910156 106.917969 187.925781 106.929688 L 187.929688 106.929688 C 187.945312 106.945312 187.960938 106.957031 187.976562 106.972656 L 187.980469 106.976562 L 187.992188 106.984375 L 187.992188 106.988281 C 188.007812 107.003906 188.019531 107.019531 188.035156 107.035156 C 194.703125 115.070312 197.761719 121.492188 198.714844 126.566406 C 201.691406 125.046875 205.53125 123.773438 210.492188 122.949219 C 210.867188 122.890625 211.21875 123.140625 211.277344 123.515625 L 211.28125 123.53125 C 211.289062 123.585938 213.25 136.789062 206.105469 143.882812 C 207.773438 144.53125 209.554688 145.492188 211.441406 146.867188 C 211.527344 146.917969 211.601562 146.992188 211.660156 147.082031 C 211.859375 147.402344 211.765625 147.824219 211.445312 148.027344 C 199.65625 155.453125 189.453125 150.933594 187.5 149.9375 C 185.546875 150.929688 175.34375 155.453125 163.558594 148.027344 C 163.238281 147.824219 163.140625 147.402344 163.34375 147.082031 C 163.398438 146.996094 163.46875 146.925781 163.550781 146.871094 C 165.441406 145.496094 167.226562 144.53125 168.894531 143.882812 C 161.746094 136.789062 163.707031 123.585938 163.714844 123.53125 L 163.71875 123.515625 C 163.777344 123.144531 164.128906 122.890625 164.503906 122.949219 C 169.464844 123.773438 173.304688 125.046875 176.28125 126.566406 C 177.234375 121.488281 180.292969 115.070312 186.960938 107.035156 C 186.976562 107.019531 186.988281 107.003906 187.003906 106.988281 Z M 187.003906 106.988281 "/></clipPath></defs><g id="739d4296db"><g clip-rule="nonzero" clip-path="url(#023e15b7ff)"><path style=" stroke:none;fill-rule:nonzero;fill:#ffffff;fill-opacity:1;" d="M 177.421875 128.785156 C 176.789062 137.203125 182.65625 140.980469 184.824219 142.082031 C 185.0625 139.816406 184.949219 133.472656 177.421875 128.785156 M 171.859375 144.429688 C 174.351562 146.085938 177.703125 147.0625 182.199219 146.871094 C 180.515625 145.507812 176.933594 143.378906 171.859375 144.429688 Z M 190.226562 121.734375 C 189.527344 121.035156 188.5625 120.605469 187.496094 120.605469 C 186.429688 120.605469 185.464844 121.039062 184.765625 121.734375 C 184.066406 122.433594 183.636719 123.398438 183.636719 124.464844 C 183.636719 125.53125 184.066406 126.496094 184.765625 127.195312 C 185.464844 127.890625 186.429688 128.324219 187.496094 128.324219 C 188.5625 128.324219 189.527344 127.890625 190.226562 127.195312 C 190.925781 126.496094 191.355469 125.53125 191.355469 124.464844 C 191.355469 123.398438 190.921875 122.433594 190.226562 121.734375 Z M 187.496094 119.234375 C 188.941406 119.234375 190.25 119.820312 191.195312 120.765625 C 192.140625 121.710938 192.726562 123.019531 192.726562 124.464844 C 192.726562 125.910156 192.140625 127.21875 191.195312 128.164062 C 190.25 129.113281 188.941406 129.695312 187.496094 129.695312 C 186.050781 129.695312 184.742188 129.109375 183.796875 128.164062 C 182.847656 127.21875 182.265625 125.910156 182.265625 124.464844 C 182.265625 123.019531 182.851562 121.710938 183.796875 120.765625 C 184.742188 119.820312 186.050781 119.234375 187.496094 119.234375 Z M 165.238281 120.011719 C 165.140625 120.375 164.765625 120.59375 164.398438 120.496094 C 164.035156 120.398438 163.816406 120.023438 163.914062 119.660156 C 165.34375 114.324219 168.476562 109.796875 172.632812 106.609375 C 176.792969 103.417969 181.972656 101.5625 187.496094 101.5625 C 193.019531 101.5625 198.199219 103.417969 202.355469 106.605469 C 206.511719 109.796875 209.648438 114.320312 211.078125 119.65625 C 211.175781 120.023438 210.957031 120.398438 210.59375 120.496094 C 210.226562 120.59375 209.851562 120.375 209.753906 120.011719 C 208.40625 114.972656 205.449219 110.703125 201.527344 107.691406 C 197.601562 104.683594 192.714844 102.933594 187.496094 102.933594 C 182.28125 102.933594 177.386719 104.683594 173.464844 107.691406 C 169.542969 110.703125 166.585938 114.972656 165.238281 120.011719 Z M 190.164062 142.082031 C 192.335938 140.980469 198.203125 137.203125 197.570312 128.78125 C 190.042969 133.472656 189.929688 139.816406 190.164062 142.082031 Z M 203.128906 144.429688 C 198.054688 143.382812 194.476562 145.507812 192.789062 146.871094 C 197.285156 147.0625 200.636719 146.085938 203.128906 144.429688 Z M 187.496094 108.539062 C 181.132812 116.347656 178.355469 122.496094 177.597656 127.28125 C 187.929688 133.324219 186.203125 142.425781 186.039062 143.179688 C 186.03125 143.230469 186.019531 143.28125 186 143.332031 C 185.859375 143.683594 185.460938 143.855469 185.109375 143.714844 C 185.066406 143.699219 174.695312 139.792969 176.066406 128 C 173.304688 126.523438 169.695312 125.265625 164.988281 124.421875 C 164.703125 127.230469 164.121094 137.761719 170.457031 143.351562 C 178.960938 140.933594 184.09375 146.734375 184.316406 146.988281 L 184.324219 146.996094 C 184.359375 147.039062 184.390625 147.085938 184.417969 147.136719 L 184.425781 147.152344 L 184.433594 147.164062 L 184.433594 147.167969 L 184.445312 147.195312 L 184.445312 147.199219 C 184.457031 147.230469 184.46875 147.261719 184.476562 147.292969 L 184.480469 147.308594 L 184.480469 147.324219 C 184.484375 147.335938 184.484375 147.347656 184.488281 147.355469 L 184.488281 147.378906 C 184.5 147.488281 184.484375 147.597656 184.445312 147.695312 L 184.4375 147.710938 L 184.433594 147.726562 L 184.425781 147.742188 L 184.417969 147.753906 L 184.417969 147.757812 L 184.410156 147.769531 L 184.402344 147.785156 L 184.394531 147.796875 L 184.375 147.832031 L 184.367188 147.84375 C 184.355469 147.859375 184.339844 147.878906 184.324219 147.894531 L 184.308594 147.910156 L 184.304688 147.917969 L 184.285156 147.9375 L 184.277344 147.941406 L 184.269531 147.949219 C 184.222656 147.992188 184.171875 148.027344 184.117188 148.054688 L 184.113281 148.058594 L 184.097656 148.0625 L 184.085938 148.070312 L 184.082031 148.070312 L 184.054688 148.082031 L 184.050781 148.082031 C 184.019531 148.097656 183.988281 148.105469 183.957031 148.113281 L 183.941406 148.117188 L 183.925781 148.117188 C 183.914062 148.121094 183.902344 148.121094 183.894531 148.121094 L 183.890625 148.121094 L 183.875 148.125 L 183.859375 148.125 C 177.503906 148.738281 173.101562 147.328125 170.058594 144.917969 C 168.539062 145.429688 166.90625 146.230469 165.164062 147.402344 C 176.960938 154.265625 186.769531 148.785156 187.144531 148.570312 L 187.148438 148.570312 L 187.15625 148.566406 C 187.171875 148.554688 187.1875 148.546875 187.203125 148.539062 L 187.21875 148.53125 L 187.234375 148.527344 L 187.25 148.519531 L 187.265625 148.515625 L 187.28125 148.507812 C 187.34375 148.488281 187.410156 148.476562 187.472656 148.476562 L 187.511719 148.476562 C 187.578125 148.476562 187.644531 148.488281 187.707031 148.507812 L 187.71875 148.515625 L 187.722656 148.515625 L 187.734375 148.519531 L 187.738281 148.519531 L 187.75 148.527344 L 187.765625 148.53125 L 187.78125 148.539062 C 187.796875 148.546875 187.8125 148.554688 187.828125 148.566406 L 187.839844 148.570312 C 188.207031 148.78125 198.019531 154.265625 209.816406 147.402344 C 208.078125 146.230469 206.445312 145.433594 204.925781 144.921875 C 201.882812 147.328125 197.480469 148.738281 191.125 148.128906 L 191.113281 148.125 L 191.09375 148.125 L 191.0625 148.121094 L 191.046875 148.117188 L 191.042969 148.117188 L 191.027344 148.113281 C 190.996094 148.105469 190.960938 148.097656 190.933594 148.085938 L 190.929688 148.082031 C 190.921875 148.082031 190.910156 148.074219 190.898438 148.070312 L 190.886719 148.066406 L 190.871094 148.058594 L 190.867188 148.058594 C 190.8125 148.027344 190.761719 147.992188 190.714844 147.949219 L 190.707031 147.941406 L 190.699219 147.9375 L 190.660156 147.898438 L 190.660156 147.894531 C 190.644531 147.878906 190.632812 147.863281 190.621094 147.84375 L 190.613281 147.835938 L 190.613281 147.832031 L 190.59375 147.804688 L 190.585938 147.792969 L 190.585938 147.789062 L 190.578125 147.777344 L 190.5625 147.746094 L 190.554688 147.734375 L 190.554688 147.730469 L 190.550781 147.71875 L 190.550781 147.714844 L 190.542969 147.703125 L 190.542969 147.699219 C 190.503906 147.601562 190.488281 147.496094 190.5 147.382812 L 190.5 147.363281 L 190.503906 147.332031 L 190.507812 147.316406 L 190.507812 147.3125 L 190.511719 147.300781 C 190.519531 147.265625 190.527344 147.234375 190.539062 147.203125 C 190.542969 147.191406 190.546875 147.183594 190.550781 147.175781 L 190.550781 147.171875 L 190.558594 147.160156 L 190.566406 147.144531 L 190.566406 147.140625 C 190.59375 147.089844 190.625 147.042969 190.664062 147 L 190.667969 146.992188 L 190.671875 146.992188 C 190.890625 146.738281 196.023438 140.941406 204.527344 143.359375 C 210.863281 137.769531 210.28125 127.234375 210 124.429688 C 205.292969 125.269531 201.683594 126.53125 198.921875 128.007812 C 200.289062 139.800781 189.917969 143.703125 189.878906 143.722656 C 189.523438 143.859375 189.125 143.6875 188.988281 143.335938 C 188.96875 143.289062 188.953125 143.238281 188.949219 143.183594 C 188.785156 142.429688 187.054688 133.328125 197.390625 127.289062 C 196.636719 122.492188 193.855469 116.347656 187.496094 108.539062 Z M 187.003906 106.988281 L 187.007812 106.984375 L 187.019531 106.976562 L 187.019531 106.972656 C 187.035156 106.957031 187.050781 106.945312 187.070312 106.929688 L 187.074219 106.929688 C 187.085938 106.917969 187.101562 106.90625 187.117188 106.898438 L 187.125 106.890625 L 187.132812 106.886719 L 187.144531 106.878906 L 187.238281 106.832031 L 187.246094 106.832031 L 187.269531 106.820312 L 187.277344 106.820312 L 187.300781 106.808594 L 187.308594 106.808594 C 187.351562 106.796875 187.394531 106.789062 187.4375 106.785156 L 187.449219 106.785156 L 187.453125 106.78125 L 187.546875 106.78125 L 187.554688 106.785156 L 187.5625 106.785156 C 187.617188 106.789062 187.671875 106.800781 187.722656 106.820312 L 187.730469 106.820312 L 187.753906 106.832031 L 187.761719 106.832031 L 187.839844 106.871094 L 187.84375 106.875 L 187.867188 106.886719 L 187.871094 106.890625 L 187.882812 106.898438 C 187.894531 106.90625 187.910156 106.917969 187.925781 106.929688 L 187.929688 106.929688 C 187.945312 106.945312 187.960938 106.957031 187.976562 106.972656 L 187.980469 106.976562 L 187.992188 106.984375 L 187.992188 106.988281 C 188.007812 107.003906 188.019531 107.019531 188.035156 107.035156 C 194.703125 115.070312 197.761719 121.492188 198.714844 126.566406 C 201.691406 125.046875 205.53125 123.773438 210.492188 122.949219 C 210.867188 122.890625 211.21875 123.140625 211.277344 123.515625 L 211.28125 123.53125 C 211.289062 123.585938 213.25 136.789062 206.105469 143.882812 C 207.773438 144.53125 209.554688 145.492188 211.441406 146.867188 C 211.527344 146.917969 211.601562 146.992188 211.660156 147.082031 C 211.859375 147.402344 211.765625 147.824219 211.445312 148.027344 C 199.65625 155.453125 189.453125 150.933594 187.5 149.9375 C 185.546875 150.929688 175.34375 155.453125 163.558594 148.027344 C 163.238281 147.824219 163.140625 147.402344 163.34375 147.082031 C 163.398438 146.996094 163.46875 146.925781 163.550781 146.871094 C 165.441406 145.496094 167.226562 144.53125 168.894531 143.882812 C 161.746094 136.789062 163.707031 123.585938 163.714844 123.53125 L 163.71875 123.515625 C 163.777344 123.140625 164.128906 122.890625 164.503906 122.949219 C 169.464844 123.773438 173.304688 125.046875 176.28125 126.566406 C 177.234375 121.488281 180.292969 115.070312 186.960938 107.035156 C 186.976562 107.019531 186.988281 107.003906 187.003906 106.988281 Z M 187.003906 106.988281 "/></g><g clip-rule="nonzero" clip-path="url(#24f45150ab)"><g clip-rule="nonzero" clip-path="url(#92215dddc3)"><path style=" stroke:none;fill-rule:nonzero;fill:#ffffff;fill-opacity:1;" d="M 161.746094 101.5625 L 213.242188 101.5625 L 213.242188 155.453125 L 161.746094 155.453125 Z M 161.746094 101.5625 "/></g></g><g style="fill:#ffffff;fill-opacity:1;"><g transform="translate(40.746973, 193.466856)"><path style="stroke:none" d="M 38.671875 4.875 L 38.09375 6.625 C 37.28125 6.6875 36.664062 6.71875 36.25 6.71875 C 34.351562 6.71875 32.8125 5.921875 31.625 4.328125 C 30.445312 2.734375 29.859375 0.660156 29.859375 -1.890625 C 29.859375 -3.441406 30.210938 -6.367188 30.921875 -10.671875 C 31.640625 -14.984375 32.46875 -18.921875 33.40625 -22.484375 C 33.601562 -23.273438 33.703125 -23.796875 33.703125 -24.046875 C 33.703125 -24.296875 33.585938 -24.421875 33.359375 -24.421875 C 33.140625 -24.421875 32.4375 -23.242188 31.25 -20.890625 C 30.070312 -18.546875 28.660156 -15.660156 27.015625 -12.234375 C 25.378906 -8.804688 24.441406 -6.847656 24.203125 -6.359375 C 23.972656 -5.867188 23.785156 -5.472656 23.640625 -5.171875 C 23.492188 -4.878906 23.207031 -4.34375 22.78125 -3.5625 C 22.363281 -2.789062 21.960938 -2.109375 21.578125 -1.515625 C 20.535156 0.0664062 19.71875 0.859375 19.125 0.859375 C 18.707031 0.859375 18.253906 0.742188 17.765625 0.515625 C 17.273438 0.296875 16.953125 0.0625 16.796875 -0.1875 C 16.453125 -0.726562 16.28125 -2.398438 16.28125 -5.203125 C 16.28125 -11.078125 16.753906 -16.675781 17.703125 -22 C 18.015625 -23.769531 18.171875 -24.703125 18.171875 -24.796875 C 18.171875 -25.109375 18.046875 -25.265625 17.796875 -25.265625 C 17.285156 -25.265625 16.476562 -23.691406 15.375 -20.546875 L 14.015625 -16.609375 C 11.992188 -10.898438 9.945312 -6.453125 7.875 -3.265625 C 5.8125 -0.078125 3.4375 2.160156 0.75 3.453125 L -0.46875 0.859375 C 2.59375 -1.421875 4.953125 -3.742188 6.609375 -6.109375 C 8.265625 -8.472656 10.066406 -12.289062 12.015625 -17.5625 L 13.625 -21.859375 C 14.726562 -24.859375 15.691406 -27 16.515625 -28.28125 C 17.335938 -29.5625 18.253906 -30.203125 19.265625 -30.203125 C 20.929688 -30.203125 21.765625 -29.191406 21.765625 -27.171875 C 21.765625 -27.015625 21.460938 -23.816406 20.859375 -17.578125 C 20.265625 -11.347656 19.96875 -7.238281 19.96875 -5.25 C 19.96875 -4.6875 20.0625 -4.390625 20.25 -4.359375 C 20.414062 -4.359375 20.59375 -4.515625 20.78125 -4.828125 C 23.332031 -9.085938 25.773438 -13.722656 28.109375 -18.734375 C 28.390625 -19.367188 28.878906 -20.457031 29.578125 -22 C 30.273438 -23.550781 30.953125 -24.925781 31.609375 -26.125 C 32.273438 -27.320312 32.78125 -28.054688 33.125 -28.328125 C 33.476562 -28.597656 34.03125 -28.734375 34.78125 -28.734375 C 35.539062 -28.734375 36.195312 -28.457031 36.75 -27.90625 C 37.300781 -27.351562 37.578125 -26.695312 37.578125 -25.9375 C 37.578125 -25.175781 37.46875 -24.304688 37.25 -23.328125 C 34.789062 -11.304688 33.5625 -4.117188 33.5625 -1.765625 C 33.5625 0.578125 33.9375 2.179688 34.6875 3.046875 C 35.445312 3.921875 36.773438 4.53125 38.671875 4.875 Z M 38.671875 4.875 "/></g></g><g style="fill:#ffffff;fill-opacity:1;"><g transform="translate(78.940497, 193.466856)"><path style="stroke:none" d="M 20.78125 -4.78125 L 21.859375 -3.96875 C 21.421875 -3.03125 20.609375 -2.132812 19.421875 -1.28125 C 18.242188 -0.425781 17.164062 0 16.1875 0 C 14.320312 0 13.390625 -0.976562 13.390625 -2.9375 C 13.390625 -3.851562 13.628906 -4.941406 14.109375 -6.203125 L 12.359375 -4.40625 C 10.648438 -2.664062 9.171875 -1.492188 7.921875 -0.890625 C 6.679688 -0.296875 5.460938 0 4.265625 0 C 3.066406 0 2.15625 -0.335938 1.53125 -1.015625 C 0.914062 -1.691406 0.609375 -2.628906 0.609375 -3.828125 C 0.609375 -6.035156 1.460938 -8.21875 3.171875 -10.375 C 4.878906 -12.539062 7.054688 -14.300781 9.703125 -15.65625 C 12.347656 -17.019531 15 -17.71875 17.65625 -17.75 L 17.75 -16.1875 L 15.765625 -15.765625 C 12.890625 -15.128906 10.351562 -13.863281 8.15625 -11.96875 C 5.96875 -10.082031 4.875 -8.195312 4.875 -6.3125 C 4.875 -4.4375 5.628906 -3.5 7.140625 -3.5 C 8.566406 -3.5 10.320312 -4.492188 12.40625 -6.484375 C 14.488281 -8.472656 16.222656 -10.804688 17.609375 -13.484375 L 19.59375 -12.3125 C 17.632812 -8.363281 16.65625 -5.851562 16.65625 -4.78125 C 16.65625 -4.34375 16.804688 -3.972656 17.109375 -3.671875 C 17.410156 -3.367188 17.707031 -3.21875 18 -3.21875 C 18.300781 -3.21875 18.5 -3.234375 18.59375 -3.265625 C 18.6875 -3.296875 18.78125 -3.332031 18.875 -3.375 C 18.976562 -3.425781 19.097656 -3.5 19.234375 -3.59375 C 19.378906 -3.6875 19.503906 -3.78125 19.609375 -3.875 C 19.722656 -3.96875 19.90625 -4.109375 20.15625 -4.296875 C 20.414062 -4.492188 20.625 -4.65625 20.78125 -4.78125 Z M 20.78125 -4.78125 "/></g></g><g style="fill:#ffffff;fill-opacity:1;"><g transform="translate(101.137231, 193.466856)"><path style="stroke:none" d="M 14.953125 -6.671875 C 15.015625 -6.109375 15.046875 -5.648438 15.046875 -5.296875 C 13.378906 -4.890625 11.863281 -4.414062 10.5 -3.875 C 9.332031 1.738281 7.816406 5.976562 5.953125 8.84375 C 4.097656 11.71875 1.734375 13.15625 -1.140625 13.15625 C -2.554688 13.15625 -3.664062 12.726562 -4.46875 11.875 C -5.269531 11.019531 -5.671875 9.851562 -5.671875 8.375 C -5.671875 5.695312 -4.503906 3.257812 -2.171875 1.0625 C 0.160156 -1.125 3.550781 -3.007812 8 -4.59375 C 9.414062 -9.988281 11.117188 -15.289062 13.109375 -20.5 C 13.710938 -22.070312 14.046875 -23.015625 14.109375 -23.328125 L 16.46875 -22.578125 C 15.582031 -20.617188 14.5 -17.726562 13.21875 -13.90625 C 11.945312 -10.09375 11.1875 -7.316406 10.9375 -5.578125 Z M 7.8125 -2.75 C 3.863281 -0.789062 1.367188 0.753906 0.328125 1.890625 C -1.023438 3.378906 -1.703125 4.925781 -1.703125 6.53125 C -1.703125 7.226562 -1.492188 7.78125 -1.078125 8.1875 C -0.671875 8.59375 -0.125 8.796875 0.5625 8.796875 C 1.988281 8.796875 3.351562 7.710938 4.65625 5.546875 C 5.96875 3.390625 7.019531 0.625 7.8125 -2.75 Z M 20.015625 -29.125 C 20.015625 -28.445312 19.847656 -27.804688 19.515625 -27.203125 C 19.191406 -26.609375 18.65625 -26.3125 17.90625 -26.3125 C 17.164062 -26.3125 16.535156 -26.515625 16.015625 -26.921875 C 15.492188 -27.335938 15.234375 -27.914062 15.234375 -28.65625 C 15.234375 -29.394531 15.484375 -30.054688 15.984375 -30.640625 C 16.492188 -31.222656 17.070312 -31.515625 17.71875 -31.515625 C 18.363281 -31.515625 18.90625 -31.285156 19.34375 -30.828125 C 19.789062 -30.367188 20.015625 -29.800781 20.015625 -29.125 Z M 20.015625 -29.125 "/></g></g><g style="fill:#ffffff;fill-opacity:1;"><g transform="translate(120.210335, 193.466856)"><path style="stroke:none" d="M 20.78125 -4.78125 L 21.859375 -3.96875 C 21.421875 -3.03125 20.609375 -2.132812 19.421875 -1.28125 C 18.242188 -0.425781 17.164062 0 16.1875 0 C 14.320312 0 13.390625 -0.976562 13.390625 -2.9375 C 13.390625 -3.851562 13.628906 -4.941406 14.109375 -6.203125 L 12.359375 -4.40625 C 10.648438 -2.664062 9.171875 -1.492188 7.921875 -0.890625 C 6.679688 -0.296875 5.460938 0 4.265625 0 C 3.066406 0 2.15625 -0.335938 1.53125 -1.015625 C 0.914062 -1.691406 0.609375 -2.628906 0.609375 -3.828125 C 0.609375 -6.035156 1.460938 -8.21875 3.171875 -10.375 C 4.878906 -12.539062 7.054688 -14.300781 9.703125 -15.65625 C 12.347656 -17.019531 15 -17.71875 17.65625 -17.75 L 17.75 -16.1875 L 15.765625 -15.765625 C 12.890625 -15.128906 10.351562 -13.863281 8.15625 -11.96875 C 5.96875 -10.082031 4.875 -8.195312 4.875 -6.3125 C 4.875 -4.4375 5.628906 -3.5 7.140625 -3.5 C 8.566406 -3.5 10.320312 -4.492188 12.40625 -6.484375 C 14.488281 -8.472656 16.222656 -10.804688 17.609375 -13.484375 L 19.59375 -12.3125 C 17.632812 -8.363281 16.65625 -5.851562 16.65625 -4.78125 C 16.65625 -4.34375 16.804688 -3.972656 17.109375 -3.671875 C 17.410156 -3.367188 17.707031 -3.21875 18 -3.21875 C 18.300781 -3.21875 18.5 -3.234375 18.59375 -3.265625 C 18.6875 -3.296875 18.78125 -3.332031 18.875 -3.375 C 18.976562 -3.425781 19.097656 -3.5 19.234375 -3.59375 C 19.378906 -3.6875 19.503906 -3.78125 19.609375 -3.875 C 19.722656 -3.96875 19.90625 -4.109375 20.15625 -4.296875 C 20.414062 -4.492188 20.625 -4.65625 20.78125 -4.78125 Z M 20.78125 -4.78125 "/></g></g><g style="fill:#ffffff;fill-opacity:1;"><g transform="translate(142.407069, 193.466856)"><path style="stroke:none" d=""/></g></g><g style="fill:#ffffff;fill-opacity:1;"><g transform="translate(165.124411, 193.466856)"><path style="stroke:none" d="M 23.375 -29.390625 L 34.59375 -29.0625 C 35.164062 -29.0625 35.882812 -29.191406 36.75 -29.453125 C 37.613281 -29.722656 38.1875 -29.859375 38.46875 -29.859375 C 38.757812 -29.859375 38.988281 -29.769531 39.15625 -29.59375 C 39.332031 -29.425781 39.421875 -29.21875 39.421875 -28.96875 C 39.421875 -28.300781 39.117188 -27.738281 38.515625 -27.28125 C 37.921875 -26.820312 37.132812 -26.5 36.15625 -26.3125 C 34.320312 -25.90625 32.695312 -25.703125 31.28125 -25.703125 C 29.351562 -24.378906 27.476562 -20.5625 25.65625 -14.25 C 28.78125 -14.25 30.71875 -14.203125 31.46875 -14.109375 L 31.375 -11.875 C 30.90625 -11.84375 30.195312 -11.828125 29.25 -11.828125 L 24.9375 -11.96875 C 23.175781 -6.570312 20.796875 -2.285156 17.796875 0.890625 C 14.796875 4.078125 11.625 5.671875 8.28125 5.671875 C 6.226562 5.671875 4.570312 5.054688 3.3125 3.828125 C 2.050781 2.597656 1.421875 0.972656 1.421875 -1.046875 C 1.421875 -4.296875 3.359375 -7.253906 7.234375 -9.921875 C 11.117188 -12.585938 15.898438 -14 21.578125 -14.15625 C 23.503906 -20.207031 25.757812 -24.054688 28.34375 -25.703125 L 20.734375 -25.984375 C 17.546875 -25.984375 15.171875 -25.570312 13.609375 -24.75 C 12.046875 -23.925781 11.265625 -22.835938 11.265625 -21.484375 C 11.265625 -20.765625 11.5625 -20.160156 12.15625 -19.671875 C 12.757812 -19.179688 13.359375 -18.9375 13.953125 -18.9375 C 14.554688 -18.9375 15.007812 -18.957031 15.3125 -19 C 15.613281 -19.050781 15.992188 -19.160156 16.453125 -19.328125 C 16.910156 -19.503906 17.234375 -19.625 17.421875 -19.6875 C 18.078125 -19.90625 18.878906 -20.253906 19.828125 -20.734375 L 20.828125 -19.5 C 18.429688 -17.101562 15.8125 -15.90625 12.96875 -15.90625 C 11.707031 -15.90625 10.664062 -16.296875 9.84375 -17.078125 C 9.019531 -17.867188 8.609375 -18.863281 8.609375 -20.0625 C 8.609375 -22.6875 9.945312 -24.894531 12.625 -26.6875 C 15.3125 -28.488281 18.894531 -29.390625 23.375 -29.390625 Z M 16.75 -2.9375 C 18.457031 -5.582031 19.816406 -8.546875 20.828125 -11.828125 C 16.910156 -11.515625 13.460938 -10.269531 10.484375 -8.09375 C 7.503906 -5.914062 6.015625 -3.582031 6.015625 -1.09375 C 6.015625 -0.113281 6.351562 0.6875 7.03125 1.3125 C 7.707031 1.945312 8.597656 2.265625 9.703125 2.265625 C 10.804688 2.265625 12.003906 1.800781 13.296875 0.875 C 14.585938 -0.0507812 15.738281 -1.320312 16.75 -2.9375 Z M 16.75 -2.9375 "/></g></g><g style="fill:#ffffff;fill-opacity:1;"><g transform="translate(201.23552, 193.466856)"><path style="stroke:none" d="M 13.71875 -16.75 C 14.507812 -16.75 15.15625 -16.476562 15.65625 -15.9375 C 16.164062 -15.40625 16.421875 -14.710938 16.421875 -13.859375 C 16.421875 -12.160156 15.441406 -10.363281 13.484375 -8.46875 L 12.359375 -9.375 C 12.796875 -10.351562 13.015625 -11.0625 13.015625 -11.5 C 13.015625 -12.351562 12.539062 -12.78125 11.59375 -12.78125 C 10.644531 -12.78125 9.742188 -12.179688 8.890625 -10.984375 C 8.046875 -9.785156 7.046875 -7.929688 5.890625 -5.421875 C 4.742188 -2.910156 3.867188 -1.132812 3.265625 -0.09375 L 0.5625 -1.28125 C 2.300781 -5.21875 3.296875 -7.535156 3.546875 -8.234375 C 4.398438 -10.691406 4.828125 -13.816406 4.828125 -17.609375 L 7.484375 -18.3125 C 7.378906 -16.257812 7.234375 -14.671875 7.046875 -13.546875 C 6.859375 -12.429688 6.398438 -10.613281 5.671875 -8.09375 C 8.859375 -13.863281 11.539062 -16.75 13.71875 -16.75 Z M 13.71875 -16.75 "/></g></g><g style="fill:#ffffff;fill-opacity:1;"><g transform="translate(218.03689, 193.466856)"><path style="stroke:none" d="M 20.78125 -4.78125 L 21.859375 -3.96875 C 21.421875 -3.03125 20.609375 -2.132812 19.421875 -1.28125 C 18.242188 -0.425781 17.164062 0 16.1875 0 C 14.320312 0 13.390625 -0.976562 13.390625 -2.9375 C 13.390625 -3.851562 13.628906 -4.941406 14.109375 -6.203125 L 12.359375 -4.40625 C 10.648438 -2.664062 9.171875 -1.492188 7.921875 -0.890625 C 6.679688 -0.296875 5.460938 0 4.265625 0 C 3.066406 0 2.15625 -0.335938 1.53125 -1.015625 C 0.914062 -1.691406 0.609375 -2.628906 0.609375 -3.828125 C 0.609375 -6.035156 1.460938 -8.21875 3.171875 -10.375 C 4.878906 -12.539062 7.054688 -14.300781 9.703125 -15.65625 C 12.347656 -17.019531 15 -17.71875 17.65625 -17.75 L 17.75 -16.1875 L 15.765625 -15.765625 C 12.890625 -15.128906 10.351562 -13.863281 8.15625 -11.96875 C 5.96875 -10.082031 4.875 -8.195312 4.875 -6.3125 C 4.875 -4.4375 5.628906 -3.5 7.140625 -3.5 C 8.566406 -3.5 10.320312 -4.492188 12.40625 -6.484375 C 14.488281 -8.472656 16.222656 -10.804688 17.609375 -13.484375 L 19.59375 -12.3125 C 17.632812 -8.363281 16.65625 -5.851562 16.65625 -4.78125 C 16.65625 -4.34375 16.804688 -3.972656 17.109375 -3.671875 C 17.410156 -3.367188 17.707031 -3.21875 18 -3.21875 C 18.300781 -3.21875 18.5 -3.234375 18.59375 -3.265625 C 18.6875 -3.296875 18.78125 -3.332031 18.875 -3.375 C 18.976562 -3.425781 19.097656 -3.5 19.234375 -3.59375 C 19.378906 -3.6875 19.503906 -3.78125 19.609375 -3.875 C 19.722656 -3.96875 19.90625 -4.109375 20.15625 -4.296875 C 20.414062 -4.492188 20.625 -4.65625 20.78125 -4.78125 Z M 20.78125 -4.78125 "/></g></g><g style="fill:#ffffff;fill-opacity:1;"><g transform="translate(240.233624, 193.466856)"><path style="stroke:none" d="M 20.296875 -5.734375 L 21.296875 -4.96875 C 20.597656 -3.582031 19.640625 -2.414062 18.421875 -1.46875 C 17.210938 -0.519531 16.117188 -0.046875 15.140625 -0.046875 C 14.160156 -0.046875 13.382812 -0.328125 12.8125 -0.890625 C 12.25 -1.460938 11.96875 -2.175781 11.96875 -3.03125 C 11.96875 -3.882812 12.507812 -5.375 13.59375 -7.5 C 14.6875 -9.632812 15.234375 -11.203125 15.234375 -12.203125 C 15.234375 -12.648438 15.050781 -13.054688 14.6875 -13.421875 C 14.332031 -13.785156 13.898438 -13.96875 13.390625 -13.96875 C 11.785156 -13.96875 10.160156 -12.742188 8.515625 -10.296875 C 6.878906 -7.847656 5.050781 -4.320312 3.03125 0.28125 L 0.1875 -0.703125 C 0.789062 -4.367188 1.648438 -7.941406 2.765625 -11.421875 C 3.890625 -14.910156 4.925781 -17.414062 5.875 -18.9375 L 7.8125 -18.3125 C 6.925781 -16.070312 5.804688 -12.207031 4.453125 -6.71875 C 8.804688 -14.164062 12.8125 -17.890625 16.46875 -17.890625 C 17.257812 -17.890625 17.914062 -17.617188 18.4375 -17.078125 C 18.957031 -16.546875 19.21875 -15.914062 19.21875 -15.1875 C 19.21875 -14.46875 19.117188 -13.816406 18.921875 -13.234375 C 18.734375 -12.648438 18.144531 -11.289062 17.15625 -9.15625 C 16.164062 -7.03125 15.671875 -5.695312 15.671875 -5.15625 C 15.671875 -4.625 15.828125 -4.207031 16.140625 -3.90625 C 16.453125 -3.601562 16.75 -3.453125 17.03125 -3.453125 C 17.320312 -3.453125 17.5625 -3.5 17.75 -3.59375 C 17.9375 -3.6875 18.144531 -3.828125 18.375 -4.015625 C 18.613281 -4.210938 18.828125 -4.390625 19.015625 -4.546875 C 19.210938 -4.703125 19.441406 -4.910156 19.703125 -5.171875 C 19.972656 -5.441406 20.171875 -5.628906 20.296875 -5.734375 Z M 20.296875 -5.734375 "/></g></g><g style="fill:#ffffff;fill-opacity:1;"><g transform="translate(262.19372, 193.466856)"><path style="stroke:none" d="M 19.59375 -4.828125 L 20.78125 -3.78125 C 18.945312 -0.789062 17.003906 0.703125 14.953125 0.703125 C 13.691406 0.703125 12.398438 -0.222656 11.078125 -2.078125 C 9.753906 -3.941406 9.09375 -5.472656 9.09375 -6.671875 C 9.09375 -7.429688 10.226562 -8.1875 12.5 -8.9375 C 13.34375 -9.226562 14.117188 -9.664062 14.828125 -10.25 C 15.546875 -10.832031 15.90625 -11.4375 15.90625 -12.0625 C 15.90625 -12.695312 15.726562 -13.179688 15.375 -13.515625 C 15.03125 -13.847656 14.59375 -14.015625 14.0625 -14.015625 C 10.582031 -13.691406 6.953125 -9.019531 3.171875 0 L 0.28125 -1 C 0.28125 -2.351562 2.117188 -7.84375 5.796875 -17.46875 C 9.472656 -27.09375 12.082031 -32.910156 13.625 -34.921875 L 15.953125 -34.078125 C 11.691406 -26.660156 8.125 -18.046875 5.25 -8.234375 C 7.707031 -11.921875 9.820312 -14.378906 11.59375 -15.609375 C 13.363281 -16.847656 15.050781 -17.46875 16.65625 -17.46875 C 17.632812 -17.46875 18.414062 -17.164062 19 -16.5625 C 19.582031 -15.96875 19.875 -15.203125 19.875 -14.265625 C 19.875 -13.335938 19.644531 -12.492188 19.1875 -11.734375 C 18.726562 -10.972656 18.078125 -10.3125 17.234375 -9.75 C 15.992188 -8.925781 14.476562 -8.117188 12.6875 -7.328125 C 12.96875 -5.847656 13.453125 -4.726562 14.140625 -3.96875 C 14.835938 -3.21875 15.628906 -2.84375 16.515625 -2.84375 C 16.992188 -2.84375 18.019531 -3.503906 19.59375 -4.828125 Z M 19.59375 -4.828125 "/></g></g><g style="fill:#ffffff;fill-opacity:1;"><g transform="translate(283.633209, 193.466856)"><path style="stroke:none" d="M 7.859375 -4.546875 L 8.84375 -3.734375 C 7.769531 -2.066406 6.847656 -0.859375 6.078125 -0.109375 C 5.304688 0.628906 4.445312 1 3.5 1 C 2.550781 1 1.773438 0.617188 1.171875 -0.140625 C 0.578125 -0.898438 0.28125 -1.847656 0.28125 -2.984375 C 0.28125 -5.191406 1.734375 -9.945312 4.640625 -17.25 C 7.546875 -24.550781 10.523438 -30.976562 13.578125 -36.53125 L 15.671875 -35.40625 C 12.578125 -29.40625 9.78125 -23.445312 7.28125 -17.53125 C 4.789062 -11.613281 3.546875 -7.363281 3.546875 -4.78125 C 3.546875 -3.300781 4.097656 -2.5625 5.203125 -2.5625 C 6.085938 -2.5625 6.972656 -3.222656 7.859375 -4.546875 Z M 7.859375 -4.546875 "/></g></g><g style="fill:#ffffff;fill-opacity:1;"><g transform="translate(296.459035, 193.466856)"><path style="stroke:none" d="M 10.125 -20.0625 C 8.363281 -20.0625 7.484375 -20.773438 7.484375 -22.203125 C 7.484375 -22.984375 7.703125 -23.640625 8.140625 -24.171875 C 8.578125 -24.710938 9.144531 -24.984375 9.84375 -24.984375 C 10.539062 -24.984375 11.109375 -24.78125 11.546875 -24.375 C 11.984375 -23.96875 12.203125 -23.429688 12.203125 -22.765625 C 12.203125 -22.097656 12.015625 -21.476562 11.640625 -20.90625 C 11.265625 -20.34375 10.757812 -20.0625 10.125 -20.0625 Z M 9.515625 -6.109375 L 10.453125 -5.296875 C 9.703125 -3.847656 8.703125 -2.609375 7.453125 -1.578125 C 6.203125 -0.554688 5.070312 -0.046875 4.0625 -0.046875 C 2.300781 -0.046875 1.421875 -1.273438 1.421875 -3.734375 C 1.421875 -6.796875 2.679688 -10.789062 5.203125 -15.71875 C 5.773438 -16.789062 6.109375 -17.421875 6.203125 -17.609375 L 8.234375 -16.375 C 7.566406 -15.175781 6.753906 -13.265625 5.796875 -10.640625 C 4.835938 -8.023438 4.359375 -6.347656 4.359375 -5.609375 C 4.359375 -4.867188 4.515625 -4.335938 4.828125 -4.015625 C 5.140625 -3.703125 5.519531 -3.546875 5.96875 -3.546875 C 6.8125 -3.546875 7.992188 -4.398438 9.515625 -6.109375 Z M 9.515625 -6.109375 "/></g></g><g style="fill:#ffffff;fill-opacity:1;"><g transform="translate(309.142892, 193.466856)"><path style="stroke:none" d="M 20.296875 -5.734375 L 21.296875 -4.96875 C 20.597656 -3.582031 19.640625 -2.414062 18.421875 -1.46875 C 17.210938 -0.519531 16.117188 -0.046875 15.140625 -0.046875 C 14.160156 -0.046875 13.382812 -0.328125 12.8125 -0.890625 C 12.25 -1.460938 11.96875 -2.175781 11.96875 -3.03125 C 11.96875 -3.882812 12.507812 -5.375 13.59375 -7.5 C 14.6875 -9.632812 15.234375 -11.203125 15.234375 -12.203125 C 15.234375 -12.648438 15.050781 -13.054688 14.6875 -13.421875 C 14.332031 -13.785156 13.898438 -13.96875 13.390625 -13.96875 C 11.785156 -13.96875 10.160156 -12.742188 8.515625 -10.296875 C 6.878906 -7.847656 5.050781 -4.320312 3.03125 0.28125 L 0.1875 -0.703125 C 0.789062 -4.367188 1.648438 -7.941406 2.765625 -11.421875 C 3.890625 -14.910156 4.925781 -17.414062 5.875 -18.9375 L 7.8125 -18.3125 C 6.925781 -16.070312 5.804688 -12.207031 4.453125 -6.71875 C 8.804688 -14.164062 12.8125 -17.890625 16.46875 -17.890625 C 17.257812 -17.890625 17.914062 -17.617188 18.4375 -17.078125 C 18.957031 -16.546875 19.21875 -15.914062 19.21875 -15.1875 C 19.21875 -14.46875 19.117188 -13.816406 18.921875 -13.234375 C 18.734375 -12.648438 18.144531 -11.289062 17.15625 -9.15625 C 16.164062 -7.03125 15.671875 -5.695312 15.671875 -5.15625 C 15.671875 -4.625 15.828125 -4.207031 16.140625 -3.90625 C 16.453125 -3.601562 16.75 -3.453125 17.03125 -3.453125 C 17.320312 -3.453125 17.5625 -3.5 17.75 -3.59375 C 17.9375 -3.6875 18.144531 -3.828125 18.375 -4.015625 C 18.613281 -4.210938 18.828125 -4.390625 19.015625 -4.546875 C 19.210938 -4.703125 19.441406 -4.910156 19.703125 -5.171875 C 19.972656 -5.441406 20.171875 -5.628906 20.296875 -5.734375 Z M 20.296875 -5.734375 "/></g></g><g style="fill:#ffffff;fill-opacity:1;"><g transform="translate(146.64491, 227.422574)"><path style="stroke:none" d="M 0.375 -13.09375 L 3.46875 -13.09375 L 6.453125 -7.453125 L 6.578125 -7.453125 L 9.5625 -13.09375 L 12.671875 -13.09375 L 7.890625 -4.625 L 7.890625 0 L 5.140625 0 L 5.140625 -4.625 Z M 0.375 -13.09375 "/></g></g><g style="fill:#ffffff;fill-opacity:1;"><g transform="translate(167.780073, 227.422574)"><path style="stroke:none" d="M 13.171875 -6.546875 C 13.171875 -5.117188 12.898438 -3.90625 12.359375 -2.90625 C 11.816406 -1.90625 11.082031 -1.140625 10.15625 -0.609375 C 9.238281 -0.0859375 8.195312 0.171875 7.03125 0.171875 C 5.875 0.171875 4.832031 -0.0859375 3.90625 -0.609375 C 2.976562 -1.140625 2.242188 -1.90625 1.703125 -2.90625 C 1.171875 -3.914062 0.90625 -5.128906 0.90625 -6.546875 C 0.90625 -7.972656 1.171875 -9.1875 1.703125 -10.1875 C 2.242188 -11.1875 2.976562 -11.945312 3.90625 -12.46875 C 4.832031 -13 5.875 -13.265625 7.03125 -13.265625 C 8.195312 -13.265625 9.238281 -13 10.15625 -12.46875 C 11.082031 -11.945312 11.816406 -11.1875 12.359375 -10.1875 C 12.898438 -9.1875 13.171875 -7.972656 13.171875 -6.546875 Z M 10.359375 -6.546875 C 10.359375 -7.929688 10.054688 -8.988281 9.453125 -9.71875 C 8.847656 -10.457031 8.039062 -10.828125 7.03125 -10.828125 C 6.03125 -10.828125 5.226562 -10.457031 4.625 -9.71875 C 4.019531 -8.988281 3.71875 -7.929688 3.71875 -6.546875 C 3.71875 -5.160156 4.019531 -4.097656 4.625 -3.359375 C 5.226562 -2.628906 6.03125 -2.265625 7.03125 -2.265625 C 8.039062 -2.265625 8.847656 -2.628906 9.453125 -3.359375 C 10.054688 -4.097656 10.359375 -5.160156 10.359375 -6.546875 Z M 10.359375 -6.546875 "/></g></g><g style="fill:#ffffff;fill-opacity:1;"><g transform="translate(189.950513, 227.422574)"><path style="stroke:none" d="M 9.8125 -8.859375 C 9.644531 -9.472656 9.320312 -9.953125 8.84375 -10.296875 C 8.375 -10.648438 7.785156 -10.828125 7.078125 -10.828125 C 6.078125 -10.828125 5.265625 -10.457031 4.640625 -9.71875 C 4.023438 -8.976562 3.71875 -7.925781 3.71875 -6.5625 C 3.71875 -5.1875 4.019531 -4.125 4.625 -3.375 C 5.238281 -2.632812 6.0625 -2.265625 7.09375 -2.265625 C 8.019531 -2.265625 8.742188 -2.503906 9.265625 -2.984375 C 9.796875 -3.460938 10.070312 -4.109375 10.09375 -4.921875 L 7.28125 -4.921875 L 7.28125 -7 L 12.75 -7 L 12.75 -5.359375 C 12.75 -4.210938 12.503906 -3.222656 12.015625 -2.390625 C 11.535156 -1.566406 10.867188 -0.929688 10.015625 -0.484375 C 9.171875 -0.046875 8.195312 0.171875 7.09375 0.171875 C 5.863281 0.171875 4.78125 -0.0976562 3.84375 -0.640625 C 2.914062 -1.179688 2.191406 -1.953125 1.671875 -2.953125 C 1.160156 -3.960938 0.90625 -5.15625 0.90625 -6.53125 C 0.90625 -7.945312 1.175781 -9.15625 1.71875 -10.15625 C 2.257812 -11.164062 2.992188 -11.9375 3.921875 -12.46875 C 4.847656 -13 5.882812 -13.265625 7.03125 -13.265625 C 8.019531 -13.265625 8.914062 -13.078125 9.71875 -12.703125 C 10.519531 -12.328125 11.175781 -11.804688 11.6875 -11.140625 C 12.195312 -10.484375 12.507812 -9.722656 12.625 -8.859375 Z M 9.8125 -8.859375 "/></g></g><g style="fill:#ffffff;fill-opacity:1;"><g transform="translate(211.737527, 227.422574)"><path style="stroke:none" d="M 3.390625 0 L 0.421875 0 L 4.953125 -13.09375 L 8.515625 -13.09375 L 13.03125 0 L 10.0625 0 L 9.09375 -2.984375 L 4.359375 -2.984375 Z M 5.0625 -5.140625 L 8.390625 -5.140625 L 6.78125 -10.09375 L 6.671875 -10.09375 Z M 5.0625 -5.140625 "/></g></g></g></svg>